<mxfile host="Electron" agent="Mozilla/5.0 (Windows NT 10.0; Win64; x64) AppleWebKit/537.36 (KHTML, like Gecko) draw.io/24.7.17 Chrome/128.0.6613.36 Electron/32.0.1 Safari/537.36" version="24.7.17">
  <diagram id="C5RBs43oDa-KdzZeNtuy" name="Page-1">
    <mxGraphModel dx="1843" dy="654" grid="1" gridSize="10" guides="1" tooltips="1" connect="1" arrows="1" fold="1" page="1" pageScale="1" pageWidth="827" pageHeight="1169" math="0" shadow="0">
      <root>
        <mxCell id="WIyWlLk6GJQsqaUBKTNV-0" />
        <mxCell id="WIyWlLk6GJQsqaUBKTNV-1" parent="WIyWlLk6GJQsqaUBKTNV-0" />
        <mxCell id="S6rZOHgfTXkQJhCgSUxU-4" style="edgeStyle=orthogonalEdgeStyle;rounded=0;orthogonalLoop=1;jettySize=auto;html=1;exitX=0.5;exitY=1;exitDx=0;exitDy=0;exitPerimeter=0;entryX=0.5;entryY=0;entryDx=0;entryDy=0;" edge="1" parent="WIyWlLk6GJQsqaUBKTNV-1" source="S6rZOHgfTXkQJhCgSUxU-21" target="S6rZOHgfTXkQJhCgSUxU-2">
          <mxGeometry relative="1" as="geometry" />
        </mxCell>
        <mxCell id="S6rZOHgfTXkQJhCgSUxU-1" value="Start" style="strokeWidth=2;html=1;shape=mxgraph.flowchart.terminator;whiteSpace=wrap;fillColor=#76608a;fontColor=#ffffff;strokeColor=#432D57;" vertex="1" parent="WIyWlLk6GJQsqaUBKTNV-1">
          <mxGeometry x="330" y="10" width="100" height="60" as="geometry" />
        </mxCell>
        <mxCell id="S6rZOHgfTXkQJhCgSUxU-3" style="edgeStyle=orthogonalEdgeStyle;rounded=0;orthogonalLoop=1;jettySize=auto;html=1;entryX=0.25;entryY=0;entryDx=0;entryDy=0;" edge="1" parent="WIyWlLk6GJQsqaUBKTNV-1" target="S6rZOHgfTXkQJhCgSUxU-2">
          <mxGeometry relative="1" as="geometry">
            <mxPoint x="260" y="240" as="targetPoint" />
            <mxPoint x="240" y="220" as="sourcePoint" />
            <Array as="points">
              <mxPoint x="290" y="220" />
              <mxPoint x="290" y="220" />
            </Array>
          </mxGeometry>
        </mxCell>
        <mxCell id="S6rZOHgfTXkQJhCgSUxU-2" value="&lt;div style=&quot;color: rgb(204, 204, 204); font-family: Consolas, &amp;quot;Courier New&amp;quot;, monospace; line-height: 188%; white-space: pre; font-size: 7px;&quot;&gt;&lt;div style=&quot;line-height: 188%;&quot;&gt;&lt;span style=&quot;color: #ce9178;&quot;&gt;pilihan1 = &quot;Kamu Disini Sebagai Apa&lt;/span&gt;&lt;/div&gt;&lt;div style=&quot;line-height: 188%;&quot;&gt;&lt;span style=&quot;color: #ce9178;&quot;&gt;(admin/pengguna/keluar)&quot;&lt;/span&gt;&lt;/div&gt;&lt;/div&gt;" style="shape=parallelogram;html=1;strokeWidth=2;perimeter=parallelogramPerimeter;whiteSpace=wrap;rounded=1;arcSize=12;size=0.23;labelBackgroundColor=none;" vertex="1" parent="WIyWlLk6GJQsqaUBKTNV-1">
          <mxGeometry x="270" y="220" width="220" height="60" as="geometry" />
        </mxCell>
        <mxCell id="S6rZOHgfTXkQJhCgSUxU-20" style="edgeStyle=orthogonalEdgeStyle;rounded=0;orthogonalLoop=1;jettySize=auto;html=1;exitX=1;exitY=0.5;exitDx=0;exitDy=0;exitPerimeter=0;entryX=0.5;entryY=0;entryDx=0;entryDy=0;" edge="1" parent="WIyWlLk6GJQsqaUBKTNV-1" source="S6rZOHgfTXkQJhCgSUxU-6" target="S6rZOHgfTXkQJhCgSUxU-19">
          <mxGeometry relative="1" as="geometry">
            <mxPoint x="460" y="400.4545454545454" as="targetPoint" />
          </mxGeometry>
        </mxCell>
        <mxCell id="S6rZOHgfTXkQJhCgSUxU-37" value="yes" style="edgeLabel;html=1;align=center;verticalAlign=middle;resizable=0;points=[];" vertex="1" connectable="0" parent="S6rZOHgfTXkQJhCgSUxU-20">
          <mxGeometry x="-0.5521" y="-1" relative="1" as="geometry">
            <mxPoint as="offset" />
          </mxGeometry>
        </mxCell>
        <mxCell id="S6rZOHgfTXkQJhCgSUxU-6" value="&lt;font style=&quot;font-size: 8px;&quot;&gt;&lt;br&gt;&lt;/font&gt;&lt;div style=&quot;color: rgb(204, 204, 204); font-family: Consolas, &amp;quot;Courier New&amp;quot;, monospace; font-weight: normal; line-height: 150%; white-space: pre; font-size: 8px;&quot;&gt;&lt;div style=&quot;line-height: 150%;&quot;&gt;&lt;font style=&quot;font-size: 8px;&quot;&gt;&lt;span style=&quot;color: rgb(156, 220, 254);&quot;&gt;pilihan1&lt;/span&gt;&lt;span style=&quot;color: rgb(204, 204, 204);&quot;&gt;.&lt;/span&gt;&lt;span style=&quot;color: rgb(220, 220, 170);&quot;&gt;lower&lt;/span&gt;&lt;span style=&quot;color: rgb(204, 204, 204);&quot;&gt;()&lt;/span&gt;&lt;/font&gt;&lt;/div&gt;&lt;div style=&quot;line-height: 150%;&quot;&gt;&lt;font style=&quot;font-size: 8px;&quot;&gt;&lt;span style=&quot;color: rgb(204, 204, 204);&quot;&gt; &lt;/span&gt;&lt;span style=&quot;color: rgb(212, 212, 212);&quot;&gt;==&lt;/span&gt;&lt;span style=&quot;color: rgb(204, 204, 204);&quot;&gt; &lt;/span&gt;&lt;span style=&quot;color: rgb(206, 145, 120);&quot;&gt;&quot;admin&quot;&lt;/span&gt;&lt;/font&gt;&lt;/div&gt;&lt;/div&gt;&lt;font style=&quot;font-size: 5px;&quot;&gt;&lt;br&gt;&lt;/font&gt;" style="strokeWidth=2;html=1;shape=mxgraph.flowchart.decision;whiteSpace=wrap;fontSize=5;labelBackgroundColor=none;" vertex="1" parent="WIyWlLk6GJQsqaUBKTNV-1">
          <mxGeometry x="330" y="350" width="100" height="100" as="geometry" />
        </mxCell>
        <mxCell id="S6rZOHgfTXkQJhCgSUxU-7" style="edgeStyle=orthogonalEdgeStyle;rounded=0;orthogonalLoop=1;jettySize=auto;html=1;entryX=0.5;entryY=0;entryDx=0;entryDy=0;entryPerimeter=0;" edge="1" parent="WIyWlLk6GJQsqaUBKTNV-1" source="S6rZOHgfTXkQJhCgSUxU-2" target="S6rZOHgfTXkQJhCgSUxU-6">
          <mxGeometry relative="1" as="geometry" />
        </mxCell>
        <mxCell id="S6rZOHgfTXkQJhCgSUxU-8" value="&lt;div style=&quot;color: rgb(204, 204, 204); font-family: Consolas, &amp;quot;Courier New&amp;quot;, monospace; line-height: 19px; white-space: pre; font-size: 9px;&quot;&gt;&lt;span style=&quot;color: #9cdcfe;&quot;&gt;pilihan1&lt;/span&gt;.&lt;span style=&quot;color: #dcdcaa;&quot;&gt;lower&lt;/span&gt;()&lt;/div&gt;&lt;div style=&quot;color: rgb(204, 204, 204); font-family: Consolas, &amp;quot;Courier New&amp;quot;, monospace; line-height: 19px; white-space: pre; font-size: 9px;&quot;&gt; &lt;span style=&quot;color: #d4d4d4;&quot;&gt;==&lt;/span&gt; &lt;span style=&quot;color: #ce9178;&quot;&gt;&quot;pengguna&quot;&lt;/span&gt;&lt;/div&gt;" style="strokeWidth=2;html=1;shape=mxgraph.flowchart.decision;whiteSpace=wrap;labelBackgroundColor=none;" vertex="1" parent="WIyWlLk6GJQsqaUBKTNV-1">
          <mxGeometry x="120" y="470" width="120" height="110" as="geometry" />
        </mxCell>
        <mxCell id="S6rZOHgfTXkQJhCgSUxU-9" style="edgeStyle=orthogonalEdgeStyle;rounded=0;orthogonalLoop=1;jettySize=auto;html=1;entryX=0.5;entryY=0;entryDx=0;entryDy=0;entryPerimeter=0;" edge="1" parent="WIyWlLk6GJQsqaUBKTNV-1" source="S6rZOHgfTXkQJhCgSUxU-6" target="S6rZOHgfTXkQJhCgSUxU-8">
          <mxGeometry relative="1" as="geometry">
            <Array as="points">
              <mxPoint x="180" y="400" />
            </Array>
          </mxGeometry>
        </mxCell>
        <mxCell id="S6rZOHgfTXkQJhCgSUxU-10" value="no" style="edgeLabel;html=1;align=center;verticalAlign=middle;resizable=0;points=[];" vertex="1" connectable="0" parent="S6rZOHgfTXkQJhCgSUxU-9">
          <mxGeometry x="0.1694" relative="1" as="geometry">
            <mxPoint as="offset" />
          </mxGeometry>
        </mxCell>
        <mxCell id="S6rZOHgfTXkQJhCgSUxU-16" style="edgeStyle=orthogonalEdgeStyle;rounded=0;orthogonalLoop=1;jettySize=auto;html=1;exitX=0;exitY=0.5;exitDx=0;exitDy=0;exitPerimeter=0;entryX=0.5;entryY=0;entryDx=0;entryDy=0;" edge="1" parent="WIyWlLk6GJQsqaUBKTNV-1" source="S6rZOHgfTXkQJhCgSUxU-11" target="S6rZOHgfTXkQJhCgSUxU-14">
          <mxGeometry relative="1" as="geometry" />
        </mxCell>
        <mxCell id="S6rZOHgfTXkQJhCgSUxU-17" value="no" style="edgeLabel;html=1;align=center;verticalAlign=middle;resizable=0;points=[];" vertex="1" connectable="0" parent="S6rZOHgfTXkQJhCgSUxU-16">
          <mxGeometry x="0.3321" y="4" relative="1" as="geometry">
            <mxPoint as="offset" />
          </mxGeometry>
        </mxCell>
        <mxCell id="S6rZOHgfTXkQJhCgSUxU-11" value="&lt;div style=&quot;color: rgb(204, 204, 204); font-family: Consolas, &amp;quot;Courier New&amp;quot;, monospace; line-height: 19px; white-space: pre; font-size: 9px;&quot;&gt;&lt;span style=&quot;color: #9cdcfe;&quot;&gt;pilihan1&lt;/span&gt;.&lt;span style=&quot;color: #dcdcaa;&quot;&gt;lower&lt;/span&gt;()&lt;/div&gt;&lt;div style=&quot;color: rgb(204, 204, 204); font-family: Consolas, &amp;quot;Courier New&amp;quot;, monospace; line-height: 19px; white-space: pre; font-size: 9px;&quot;&gt; &lt;span style=&quot;color: #d4d4d4;&quot;&gt;==&lt;/span&gt; &lt;span style=&quot;color: #ce9178;&quot;&gt;&quot;keluar&quot;&lt;/span&gt;&lt;/div&gt;" style="strokeWidth=2;html=1;shape=mxgraph.flowchart.decision;whiteSpace=wrap;labelBackgroundColor=none;" vertex="1" parent="WIyWlLk6GJQsqaUBKTNV-1">
          <mxGeometry x="-180" y="535" width="110" height="100" as="geometry" />
        </mxCell>
        <mxCell id="S6rZOHgfTXkQJhCgSUxU-13" style="edgeStyle=orthogonalEdgeStyle;rounded=0;orthogonalLoop=1;jettySize=auto;html=1;entryX=0.5;entryY=0;entryDx=0;entryDy=0;entryPerimeter=0;exitX=0;exitY=0.5;exitDx=0;exitDy=0;exitPerimeter=0;" edge="1" parent="WIyWlLk6GJQsqaUBKTNV-1" source="S6rZOHgfTXkQJhCgSUxU-8" target="S6rZOHgfTXkQJhCgSUxU-11">
          <mxGeometry relative="1" as="geometry">
            <mxPoint x="-60" y="455" as="sourcePoint" />
          </mxGeometry>
        </mxCell>
        <mxCell id="S6rZOHgfTXkQJhCgSUxU-15" value="no" style="edgeLabel;html=1;align=center;verticalAlign=middle;resizable=0;points=[];" vertex="1" connectable="0" parent="S6rZOHgfTXkQJhCgSUxU-13">
          <mxGeometry x="0.4484" y="-1" relative="1" as="geometry">
            <mxPoint as="offset" />
          </mxGeometry>
        </mxCell>
        <mxCell id="S6rZOHgfTXkQJhCgSUxU-18" style="edgeStyle=orthogonalEdgeStyle;rounded=0;orthogonalLoop=1;jettySize=auto;html=1;exitX=0.75;exitY=0;exitDx=0;exitDy=0;entryX=0;entryY=1;entryDx=0;entryDy=0;" edge="1" parent="WIyWlLk6GJQsqaUBKTNV-1" source="S6rZOHgfTXkQJhCgSUxU-14" target="S6rZOHgfTXkQJhCgSUxU-2">
          <mxGeometry relative="1" as="geometry">
            <mxPoint x="30" y="220" as="targetPoint" />
            <Array as="points">
              <mxPoint x="-90" y="395" />
              <mxPoint x="-90" y="280" />
            </Array>
          </mxGeometry>
        </mxCell>
        <mxCell id="S6rZOHgfTXkQJhCgSUxU-14" value="&lt;div style=&quot;color: rgb(204, 204, 204); font-family: Consolas, &amp;quot;Courier New&amp;quot;, monospace; line-height: 19px; white-space: pre; font-size: 10px;&quot;&gt;&lt;span style=&quot;color: #dcdcaa;&quot;&gt;print&lt;/span&gt;(&lt;span style=&quot;color: #ce9178;&quot;&gt;&quot;Input Yang&lt;/span&gt;&lt;/div&gt;&lt;div style=&quot;color: rgb(204, 204, 204); font-family: Consolas, &amp;quot;Courier New&amp;quot;, monospace; line-height: 19px; white-space: pre; font-size: 10px;&quot;&gt;&lt;span style=&quot;color: #ce9178;&quot;&gt; Anda Masukkan&lt;/span&gt;&lt;/div&gt;&lt;div style=&quot;color: rgb(204, 204, 204); font-family: Consolas, &amp;quot;Courier New&amp;quot;, monospace; line-height: 19px; white-space: pre; font-size: 10px;&quot;&gt;&lt;span style=&quot;color: #ce9178;&quot;&gt; Salah!! Coba &lt;/span&gt;&lt;/div&gt;&lt;div style=&quot;color: rgb(204, 204, 204); font-family: Consolas, &amp;quot;Courier New&amp;quot;, monospace; line-height: 19px; white-space: pre; font-size: 10px;&quot;&gt;&lt;span style=&quot;color: #ce9178;&quot;&gt;Ulangi!!&quot;&lt;/span&gt;)&lt;/div&gt;" style="rounded=1;whiteSpace=wrap;html=1;absoluteArcSize=1;arcSize=14;strokeWidth=2;labelBackgroundColor=none;" vertex="1" parent="WIyWlLk6GJQsqaUBKTNV-1">
          <mxGeometry x="-170" y="395" width="100" height="100" as="geometry" />
        </mxCell>
        <mxCell id="S6rZOHgfTXkQJhCgSUxU-19" value="&lt;div style=&quot;color: rgb(204, 204, 204); font-family: Consolas, &amp;quot;Courier New&amp;quot;, monospace; font-size: 14px; line-height: 90%; white-space: pre;&quot;&gt;&lt;span style=&quot;color: rgb(206, 145, 120); font-size: 9px;&quot;&gt;adminlogin =&lt;/span&gt;&lt;/div&gt;&lt;div style=&quot;color: rgb(204, 204, 204); font-family: Consolas, &amp;quot;Courier New&amp;quot;, monospace; font-size: 14px; line-height: 90%; white-space: pre;&quot;&gt;&lt;span style=&quot;color: rgb(206, 145, 120); font-size: 9px;&quot;&gt;Masukkan &lt;/span&gt;&lt;/div&gt;&lt;div style=&quot;color: rgb(204, 204, 204); font-family: Consolas, &amp;quot;Courier New&amp;quot;, monospace; font-size: 14px; line-height: 90%; white-space: pre;&quot;&gt;&lt;span style=&quot;color: rgb(206, 145, 120); font-size: 9px;&quot;&gt;Password&lt;/span&gt;&lt;/div&gt;" style="shape=parallelogram;html=1;strokeWidth=2;perimeter=parallelogramPerimeter;whiteSpace=wrap;rounded=1;arcSize=12;size=0.23;labelBackgroundColor=none;" vertex="1" parent="WIyWlLk6GJQsqaUBKTNV-1">
          <mxGeometry x="600" y="420" width="100" height="50" as="geometry" />
        </mxCell>
        <mxCell id="S6rZOHgfTXkQJhCgSUxU-22" value="" style="edgeStyle=orthogonalEdgeStyle;rounded=0;orthogonalLoop=1;jettySize=auto;html=1;exitX=0.5;exitY=1;exitDx=0;exitDy=0;exitPerimeter=0;entryX=0.5;entryY=0;entryDx=0;entryDy=0;" edge="1" parent="WIyWlLk6GJQsqaUBKTNV-1" source="S6rZOHgfTXkQJhCgSUxU-1" target="S6rZOHgfTXkQJhCgSUxU-21">
          <mxGeometry relative="1" as="geometry">
            <mxPoint x="380" y="70" as="sourcePoint" />
            <mxPoint x="380" y="220" as="targetPoint" />
          </mxGeometry>
        </mxCell>
        <mxCell id="S6rZOHgfTXkQJhCgSUxU-21" value="pw =&amp;nbsp;&lt;div&gt;admin123&lt;/div&gt;" style="shape=parallelogram;html=1;strokeWidth=2;perimeter=parallelogramPerimeter;whiteSpace=wrap;rounded=1;arcSize=15;size=0.23;" vertex="1" parent="WIyWlLk6GJQsqaUBKTNV-1">
          <mxGeometry x="330" y="100" width="100" height="60" as="geometry" />
        </mxCell>
        <mxCell id="S6rZOHgfTXkQJhCgSUxU-27" style="edgeStyle=orthogonalEdgeStyle;rounded=0;orthogonalLoop=1;jettySize=auto;html=1;entryX=0.5;entryY=0;entryDx=0;entryDy=0;" edge="1" parent="WIyWlLk6GJQsqaUBKTNV-1" source="S6rZOHgfTXkQJhCgSUxU-23">
          <mxGeometry relative="1" as="geometry">
            <mxPoint x="570" y="610" as="targetPoint" />
            <Array as="points">
              <mxPoint x="570" y="560" />
            </Array>
          </mxGeometry>
        </mxCell>
        <mxCell id="S6rZOHgfTXkQJhCgSUxU-29" value="no" style="edgeLabel;html=1;align=center;verticalAlign=middle;resizable=0;points=[];" vertex="1" connectable="0" parent="S6rZOHgfTXkQJhCgSUxU-27">
          <mxGeometry x="0.0795" y="3" relative="1" as="geometry">
            <mxPoint as="offset" />
          </mxGeometry>
        </mxCell>
        <mxCell id="S6rZOHgfTXkQJhCgSUxU-33" style="edgeStyle=orthogonalEdgeStyle;rounded=0;orthogonalLoop=1;jettySize=auto;html=1;exitX=1;exitY=0.5;exitDx=0;exitDy=0;exitPerimeter=0;entryX=0.5;entryY=0;entryDx=0;entryDy=0;" edge="1" parent="WIyWlLk6GJQsqaUBKTNV-1" source="S6rZOHgfTXkQJhCgSUxU-23" target="S6rZOHgfTXkQJhCgSUxU-32">
          <mxGeometry relative="1" as="geometry">
            <mxPoint x="770" y="560.4545454545453" as="targetPoint" />
          </mxGeometry>
        </mxCell>
        <mxCell id="S6rZOHgfTXkQJhCgSUxU-38" value="yes" style="edgeLabel;html=1;align=center;verticalAlign=middle;resizable=0;points=[];" vertex="1" connectable="0" parent="S6rZOHgfTXkQJhCgSUxU-33">
          <mxGeometry x="-0.7572" y="3" relative="1" as="geometry">
            <mxPoint as="offset" />
          </mxGeometry>
        </mxCell>
        <mxCell id="S6rZOHgfTXkQJhCgSUxU-23" value="pw ==&amp;nbsp;&lt;div&gt;adminlogin&lt;/div&gt;" style="strokeWidth=2;html=1;shape=mxgraph.flowchart.decision;whiteSpace=wrap;" vertex="1" parent="WIyWlLk6GJQsqaUBKTNV-1">
          <mxGeometry x="600" y="510" width="100" height="100" as="geometry" />
        </mxCell>
        <mxCell id="S6rZOHgfTXkQJhCgSUxU-24" style="edgeStyle=orthogonalEdgeStyle;rounded=0;orthogonalLoop=1;jettySize=auto;html=1;entryX=0.5;entryY=0;entryDx=0;entryDy=0;entryPerimeter=0;" edge="1" parent="WIyWlLk6GJQsqaUBKTNV-1" source="S6rZOHgfTXkQJhCgSUxU-19" target="S6rZOHgfTXkQJhCgSUxU-23">
          <mxGeometry relative="1" as="geometry" />
        </mxCell>
        <mxCell id="S6rZOHgfTXkQJhCgSUxU-28" style="edgeStyle=orthogonalEdgeStyle;rounded=0;orthogonalLoop=1;jettySize=auto;html=1;exitX=0.25;exitY=0;exitDx=0;exitDy=0;entryX=0;entryY=0.5;entryDx=0;entryDy=0;" edge="1" parent="WIyWlLk6GJQsqaUBKTNV-1" target="S6rZOHgfTXkQJhCgSUxU-19">
          <mxGeometry relative="1" as="geometry">
            <mxPoint x="549.8181818181815" y="449.9999999999999" as="targetPoint" />
            <mxPoint x="550" y="610" as="sourcePoint" />
            <Array as="points">
              <mxPoint x="550" y="445" />
            </Array>
          </mxGeometry>
        </mxCell>
        <mxCell id="S6rZOHgfTXkQJhCgSUxU-32" value="pilihanresep" style="shape=parallelogram;html=1;strokeWidth=2;perimeter=parallelogramPerimeter;whiteSpace=wrap;rounded=1;arcSize=12;size=0.23;" vertex="1" parent="WIyWlLk6GJQsqaUBKTNV-1">
          <mxGeometry x="727" y="700" width="100" height="60" as="geometry" />
        </mxCell>
        <mxCell id="S6rZOHgfTXkQJhCgSUxU-35" value="" style="edgeStyle=none;orthogonalLoop=1;jettySize=auto;html=1;rounded=0;" edge="1" parent="WIyWlLk6GJQsqaUBKTNV-1">
          <mxGeometry width="100" relative="1" as="geometry">
            <mxPoint x="717" y="700" as="sourcePoint" />
            <mxPoint x="757" y="700" as="targetPoint" />
            <Array as="points" />
          </mxGeometry>
        </mxCell>
        <mxCell id="S6rZOHgfTXkQJhCgSUxU-36" value="&lt;font style=&quot;font-size: 12px;&quot;&gt;print(&quot;pilihlah&amp;nbsp;&lt;/font&gt;&lt;div style=&quot;line-height: 110%;&quot;&gt;&lt;font style=&quot;font-size: 12px;&quot;&gt;1. tambah resep&lt;/font&gt;&lt;/div&gt;&lt;div style=&quot;line-height: 110%;&quot;&gt;&lt;font style=&quot;font-size: 12px;&quot;&gt;2. tampilkan resep&lt;/font&gt;&lt;/div&gt;&lt;div style=&quot;line-height: 110%;&quot;&gt;&lt;font style=&quot;font-size: 12px;&quot;&gt;3.ubah isi resep&lt;/font&gt;&lt;/div&gt;&lt;div style=&quot;line-height: 110%;&quot;&gt;&lt;font style=&quot;font-size: 12px;&quot;&gt;4.hapus resep&lt;/font&gt;&lt;/div&gt;&lt;div style=&quot;line-height: 110%;&quot;&gt;&lt;font style=&quot;font-size: 12px;&quot;&gt;5.keluar&lt;/font&gt;&lt;/div&gt;" style="rounded=1;whiteSpace=wrap;html=1;absoluteArcSize=1;arcSize=14;strokeWidth=2;" vertex="1" parent="WIyWlLk6GJQsqaUBKTNV-1">
          <mxGeometry x="727" y="570" width="100" height="100" as="geometry" />
        </mxCell>
        <mxCell id="S6rZOHgfTXkQJhCgSUxU-41" style="edgeStyle=orthogonalEdgeStyle;rounded=0;orthogonalLoop=1;jettySize=auto;html=1;labelBorderColor=none;textShadow=0;strokeColor=#FFFFFF;" edge="1" parent="WIyWlLk6GJQsqaUBKTNV-1" source="S6rZOHgfTXkQJhCgSUxU-39">
          <mxGeometry relative="1" as="geometry">
            <mxPoint x="670" y="830" as="targetPoint" />
          </mxGeometry>
        </mxCell>
        <mxCell id="S6rZOHgfTXkQJhCgSUxU-42" value="yes" style="edgeLabel;html=1;align=center;verticalAlign=middle;resizable=0;points=[];" vertex="1" connectable="0" parent="S6rZOHgfTXkQJhCgSUxU-41">
          <mxGeometry x="-0.282" y="2" relative="1" as="geometry">
            <mxPoint as="offset" />
          </mxGeometry>
        </mxCell>
        <mxCell id="S6rZOHgfTXkQJhCgSUxU-63" style="edgeStyle=orthogonalEdgeStyle;rounded=0;orthogonalLoop=1;jettySize=auto;html=1;exitX=1;exitY=0.5;exitDx=0;exitDy=0;exitPerimeter=0;" edge="1" parent="WIyWlLk6GJQsqaUBKTNV-1" source="S6rZOHgfTXkQJhCgSUxU-39" target="S6rZOHgfTXkQJhCgSUxU-62">
          <mxGeometry relative="1" as="geometry" />
        </mxCell>
        <mxCell id="S6rZOHgfTXkQJhCgSUxU-64" value="no" style="edgeLabel;html=1;align=center;verticalAlign=middle;resizable=0;points=[];" vertex="1" connectable="0" parent="S6rZOHgfTXkQJhCgSUxU-63">
          <mxGeometry x="-0.2043" y="-2" relative="1" as="geometry">
            <mxPoint as="offset" />
          </mxGeometry>
        </mxCell>
        <mxCell id="S6rZOHgfTXkQJhCgSUxU-39" value="&lt;font style=&quot;font-size: 11px;&quot;&gt;pilihanresep ==&lt;/font&gt;&lt;div style=&quot;font-size: 11px;&quot;&gt;&lt;font style=&quot;font-size: 11px;&quot;&gt;1&lt;/font&gt;&lt;/div&gt;" style="strokeWidth=2;html=1;shape=mxgraph.flowchart.decision;whiteSpace=wrap;labelBorderColor=none;textShadow=0;strokeColor=#FF3333;" vertex="1" parent="WIyWlLk6GJQsqaUBKTNV-1">
          <mxGeometry x="727" y="780" width="100" height="100" as="geometry" />
        </mxCell>
        <mxCell id="S6rZOHgfTXkQJhCgSUxU-40" style="edgeStyle=orthogonalEdgeStyle;rounded=0;orthogonalLoop=1;jettySize=auto;html=1;entryX=0.5;entryY=0;entryDx=0;entryDy=0;entryPerimeter=0;" edge="1" parent="WIyWlLk6GJQsqaUBKTNV-1" source="S6rZOHgfTXkQJhCgSUxU-32" target="S6rZOHgfTXkQJhCgSUxU-39">
          <mxGeometry relative="1" as="geometry" />
        </mxCell>
        <mxCell id="S6rZOHgfTXkQJhCgSUxU-43" value="judul" style="shape=parallelogram;html=1;strokeWidth=2;perimeter=parallelogramPerimeter;whiteSpace=wrap;rounded=1;arcSize=12;size=0.23;labelBorderColor=none;textShadow=0;strokeColor=#FF3333;" vertex="1" parent="WIyWlLk6GJQsqaUBKTNV-1">
          <mxGeometry x="580" y="800" width="100" height="60" as="geometry" />
        </mxCell>
        <mxCell id="S6rZOHgfTXkQJhCgSUxU-44" value="&lt;font style=&quot;font-size: 11px;&quot;&gt;print(&quot;Password&lt;/font&gt;&lt;div style=&quot;font-size: 11px;&quot;&gt;salah&quot;)&lt;/div&gt;" style="rounded=1;whiteSpace=wrap;html=1;absoluteArcSize=1;arcSize=14;strokeWidth=2;" vertex="1" parent="WIyWlLk6GJQsqaUBKTNV-1">
          <mxGeometry x="520" y="610" width="90" height="70" as="geometry" />
        </mxCell>
        <mxCell id="S6rZOHgfTXkQJhCgSUxU-54" style="edgeStyle=orthogonalEdgeStyle;rounded=0;orthogonalLoop=1;jettySize=auto;html=1;exitX=0.5;exitY=1;exitDx=0;exitDy=0;entryX=0.5;entryY=0;entryDx=0;entryDy=0;" edge="1" parent="WIyWlLk6GJQsqaUBKTNV-1" source="S6rZOHgfTXkQJhCgSUxU-46" target="S6rZOHgfTXkQJhCgSUxU-53">
          <mxGeometry relative="1" as="geometry" />
        </mxCell>
        <mxCell id="S6rZOHgfTXkQJhCgSUxU-46" value="while True:" style="rounded=1;whiteSpace=wrap;html=1;absoluteArcSize=1;arcSize=14;strokeWidth=2;labelBorderColor=none;textShadow=0;strokeColor=#FF3333;" vertex="1" parent="WIyWlLk6GJQsqaUBKTNV-1">
          <mxGeometry x="585" y="890" width="90" height="50" as="geometry" />
        </mxCell>
        <mxCell id="S6rZOHgfTXkQJhCgSUxU-51" style="edgeStyle=orthogonalEdgeStyle;rounded=0;orthogonalLoop=1;jettySize=auto;html=1;exitX=0.5;exitY=1;exitDx=0;exitDy=0;entryX=0.509;entryY=-0.067;entryDx=0;entryDy=0;entryPerimeter=0;" edge="1" parent="WIyWlLk6GJQsqaUBKTNV-1" source="S6rZOHgfTXkQJhCgSUxU-43" target="S6rZOHgfTXkQJhCgSUxU-46">
          <mxGeometry relative="1" as="geometry">
            <Array as="points">
              <mxPoint x="630" y="873" />
              <mxPoint x="631" y="873" />
            </Array>
          </mxGeometry>
        </mxCell>
        <mxCell id="S6rZOHgfTXkQJhCgSUxU-56" value="" style="edgeStyle=orthogonalEdgeStyle;rounded=0;orthogonalLoop=1;jettySize=auto;html=1;" edge="1" parent="WIyWlLk6GJQsqaUBKTNV-1" source="S6rZOHgfTXkQJhCgSUxU-53" target="S6rZOHgfTXkQJhCgSUxU-55">
          <mxGeometry relative="1" as="geometry" />
        </mxCell>
        <mxCell id="S6rZOHgfTXkQJhCgSUxU-53" value="stepresep" style="shape=parallelogram;html=1;strokeWidth=2;perimeter=parallelogramPerimeter;whiteSpace=wrap;rounded=1;arcSize=12;size=0.23;labelBorderColor=none;textShadow=0;strokeColor=#FF3333;" vertex="1" parent="WIyWlLk6GJQsqaUBKTNV-1">
          <mxGeometry x="575" y="970" width="100" height="60" as="geometry" />
        </mxCell>
        <mxCell id="S6rZOHgfTXkQJhCgSUxU-57" style="edgeStyle=orthogonalEdgeStyle;rounded=0;orthogonalLoop=1;jettySize=auto;html=1;entryX=1;entryY=0.366;entryDx=0;entryDy=0;entryPerimeter=0;" edge="1" parent="WIyWlLk6GJQsqaUBKTNV-1" source="S6rZOHgfTXkQJhCgSUxU-55" target="S6rZOHgfTXkQJhCgSUxU-46">
          <mxGeometry relative="1" as="geometry">
            <mxPoint x="700" y="910" as="targetPoint" />
            <Array as="points">
              <mxPoint x="695" y="1100" />
              <mxPoint x="695" y="908" />
            </Array>
          </mxGeometry>
        </mxCell>
        <mxCell id="S6rZOHgfTXkQJhCgSUxU-58" value="no" style="edgeLabel;html=1;align=center;verticalAlign=middle;resizable=0;points=[];" vertex="1" connectable="0" parent="S6rZOHgfTXkQJhCgSUxU-57">
          <mxGeometry x="0.2419" y="2" relative="1" as="geometry">
            <mxPoint as="offset" />
          </mxGeometry>
        </mxCell>
        <mxCell id="S6rZOHgfTXkQJhCgSUxU-59" style="edgeStyle=orthogonalEdgeStyle;rounded=0;orthogonalLoop=1;jettySize=auto;html=1;exitX=0.055;exitY=0.487;exitDx=0;exitDy=0;exitPerimeter=0;entryX=0;entryY=0.75;entryDx=0;entryDy=0;strokeColor=#FF3333;" edge="1" parent="WIyWlLk6GJQsqaUBKTNV-1" source="S6rZOHgfTXkQJhCgSUxU-55" target="S6rZOHgfTXkQJhCgSUxU-36">
          <mxGeometry relative="1" as="geometry">
            <mxPoint x="550" y="700" as="targetPoint" />
            <Array as="points">
              <mxPoint x="555" y="1099" />
              <mxPoint x="555" y="710" />
              <mxPoint x="690" y="710" />
              <mxPoint x="690" y="645" />
            </Array>
          </mxGeometry>
        </mxCell>
        <mxCell id="S6rZOHgfTXkQJhCgSUxU-123" value="yes" style="edgeLabel;html=1;align=center;verticalAlign=middle;resizable=0;points=[];" vertex="1" connectable="0" parent="S6rZOHgfTXkQJhCgSUxU-59">
          <mxGeometry x="-0.7553" y="-4" relative="1" as="geometry">
            <mxPoint as="offset" />
          </mxGeometry>
        </mxCell>
        <mxCell id="S6rZOHgfTXkQJhCgSUxU-55" value="stepresep ==&lt;div&gt;&quot;berhenti&quot;&lt;/div&gt;" style="strokeWidth=2;html=1;shape=mxgraph.flowchart.decision;whiteSpace=wrap;labelBorderColor=none;textShadow=0;strokeColor=#FF3333;" vertex="1" parent="WIyWlLk6GJQsqaUBKTNV-1">
          <mxGeometry x="575" y="1050" width="100" height="100" as="geometry" />
        </mxCell>
        <mxCell id="S6rZOHgfTXkQJhCgSUxU-61" value="&lt;div style=&quot;color: rgb(204, 204, 204); font-family: Consolas, &amp;quot;Courier New&amp;quot;, monospace; line-height: 19px; white-space: pre; font-size: 11px;&quot;&gt;&lt;span style=&quot;color: #9cdcfe;&quot;&gt;resep&lt;/span&gt;.&lt;span style=&quot;color: #dcdcaa;&quot;&gt;append&lt;/span&gt;&lt;/div&gt;&lt;div style=&quot;color: rgb(204, 204, 204); font-family: Consolas, &amp;quot;Courier New&amp;quot;, monospace; line-height: 19px; white-space: pre; font-size: 11px;&quot;&gt;([&lt;span style=&quot;color: #9cdcfe;&quot;&gt;judul&lt;/span&gt;,&lt;/div&gt;&lt;div style=&quot;color: rgb(204, 204, 204); font-family: Consolas, &amp;quot;Courier New&amp;quot;, monospace; line-height: 19px; white-space: pre; font-size: 11px;&quot;&gt;&lt;span style=&quot;color: #9cdcfe;&quot;&gt;stepresep&lt;/span&gt;])&lt;/div&gt;" style="rounded=1;whiteSpace=wrap;html=1;absoluteArcSize=1;arcSize=14;strokeWidth=2;labelBackgroundColor=none;labelBorderColor=none;textShadow=0;strokeColor=#FF3333;" vertex="1" parent="WIyWlLk6GJQsqaUBKTNV-1">
          <mxGeometry x="470" y="750" width="100" height="100" as="geometry" />
        </mxCell>
        <mxCell id="S6rZOHgfTXkQJhCgSUxU-69" value="" style="edgeStyle=orthogonalEdgeStyle;rounded=0;orthogonalLoop=1;jettySize=auto;html=1;" edge="1" parent="WIyWlLk6GJQsqaUBKTNV-1" source="S6rZOHgfTXkQJhCgSUxU-62" target="S6rZOHgfTXkQJhCgSUxU-65">
          <mxGeometry relative="1" as="geometry" />
        </mxCell>
        <mxCell id="S6rZOHgfTXkQJhCgSUxU-77" value="yes" style="edgeLabel;html=1;align=center;verticalAlign=middle;resizable=0;points=[];" vertex="1" connectable="0" parent="S6rZOHgfTXkQJhCgSUxU-69">
          <mxGeometry x="-0.5783" y="2" relative="1" as="geometry">
            <mxPoint as="offset" />
          </mxGeometry>
        </mxCell>
        <mxCell id="S6rZOHgfTXkQJhCgSUxU-62" value="&lt;font style=&quot;font-size: 11px;&quot;&gt;pilihanresep ==&lt;/font&gt;&lt;div style=&quot;font-size: 11px;&quot;&gt;&lt;font style=&quot;font-size: 11px;&quot;&gt;2&lt;/font&gt;&lt;/div&gt;" style="strokeWidth=2;html=1;shape=mxgraph.flowchart.decision;whiteSpace=wrap;strokeColor=#FF8000;" vertex="1" parent="WIyWlLk6GJQsqaUBKTNV-1">
          <mxGeometry x="880" y="780" width="100" height="100" as="geometry" />
        </mxCell>
        <mxCell id="S6rZOHgfTXkQJhCgSUxU-66" style="edgeStyle=orthogonalEdgeStyle;rounded=0;orthogonalLoop=1;jettySize=auto;html=1;" edge="1" parent="WIyWlLk6GJQsqaUBKTNV-1" source="S6rZOHgfTXkQJhCgSUxU-65">
          <mxGeometry relative="1" as="geometry">
            <mxPoint x="840" y="963.48" as="targetPoint" />
          </mxGeometry>
        </mxCell>
        <mxCell id="S6rZOHgfTXkQJhCgSUxU-70" value="yes" style="edgeLabel;html=1;align=center;verticalAlign=middle;resizable=0;points=[];" vertex="1" connectable="0" parent="S6rZOHgfTXkQJhCgSUxU-66">
          <mxGeometry x="-0.1528" y="-1" relative="1" as="geometry">
            <mxPoint as="offset" />
          </mxGeometry>
        </mxCell>
        <mxCell id="S6rZOHgfTXkQJhCgSUxU-72" value="" style="edgeStyle=orthogonalEdgeStyle;rounded=0;orthogonalLoop=1;jettySize=auto;html=1;" edge="1" parent="WIyWlLk6GJQsqaUBKTNV-1" source="S6rZOHgfTXkQJhCgSUxU-65" target="S6rZOHgfTXkQJhCgSUxU-71">
          <mxGeometry relative="1" as="geometry" />
        </mxCell>
        <mxCell id="S6rZOHgfTXkQJhCgSUxU-134" value="no" style="edgeLabel;html=1;align=center;verticalAlign=middle;resizable=0;points=[];" vertex="1" connectable="0" parent="S6rZOHgfTXkQJhCgSUxU-72">
          <mxGeometry x="-0.0148" relative="1" as="geometry">
            <mxPoint as="offset" />
          </mxGeometry>
        </mxCell>
        <mxCell id="S6rZOHgfTXkQJhCgSUxU-65" value="not resep" style="strokeWidth=2;html=1;shape=mxgraph.flowchart.decision;whiteSpace=wrap;strokeColor=#FF8000;" vertex="1" parent="WIyWlLk6GJQsqaUBKTNV-1">
          <mxGeometry x="880" y="913.48" width="100" height="100" as="geometry" />
        </mxCell>
        <mxCell id="S6rZOHgfTXkQJhCgSUxU-68" style="edgeStyle=orthogonalEdgeStyle;rounded=0;orthogonalLoop=1;jettySize=auto;html=1;strokeColor=#FF8000;" edge="1" parent="WIyWlLk6GJQsqaUBKTNV-1" source="S6rZOHgfTXkQJhCgSUxU-67">
          <mxGeometry relative="1" as="geometry">
            <mxPoint x="550" y="710" as="targetPoint" />
            <Array as="points">
              <mxPoint x="805" y="1160" />
              <mxPoint x="441" y="1160" />
              <mxPoint x="441" y="710" />
            </Array>
          </mxGeometry>
        </mxCell>
        <mxCell id="S6rZOHgfTXkQJhCgSUxU-67" value="&lt;font style=&quot;font-size: 11px;&quot;&gt;print(&quot;tidak ada&lt;/font&gt;&lt;div style=&quot;font-size: 11px;&quot;&gt;&lt;font style=&quot;font-size: 11px;&quot;&gt;resep&quot;&lt;/font&gt;&lt;/div&gt;" style="rounded=1;whiteSpace=wrap;html=1;absoluteArcSize=1;arcSize=14;strokeWidth=2;strokeColor=#FF8000;" vertex="1" parent="WIyWlLk6GJQsqaUBKTNV-1">
          <mxGeometry x="770" y="923.48" width="70" height="80" as="geometry" />
        </mxCell>
        <mxCell id="S6rZOHgfTXkQJhCgSUxU-74" style="edgeStyle=orthogonalEdgeStyle;rounded=0;orthogonalLoop=1;jettySize=auto;html=1;" edge="1" parent="WIyWlLk6GJQsqaUBKTNV-1" source="S6rZOHgfTXkQJhCgSUxU-71">
          <mxGeometry relative="1" as="geometry">
            <mxPoint x="810" y="1073.48" as="targetPoint" />
          </mxGeometry>
        </mxCell>
        <mxCell id="S6rZOHgfTXkQJhCgSUxU-71" value="Menampilkan list&lt;div&gt;judul dan isi resep&lt;/div&gt;" style="rounded=1;whiteSpace=wrap;html=1;absoluteArcSize=1;arcSize=14;strokeWidth=2;strokeColor=#FF8000;" vertex="1" parent="WIyWlLk6GJQsqaUBKTNV-1">
          <mxGeometry x="850" y="1053.48" width="110" height="40" as="geometry" />
        </mxCell>
        <mxCell id="S6rZOHgfTXkQJhCgSUxU-75" value="&lt;font style=&quot;font-size: 11px;&quot;&gt;pilihanresep ==&lt;/font&gt;&lt;div style=&quot;font-size: 11px;&quot;&gt;&lt;font style=&quot;font-size: 11px;&quot;&gt;3&lt;/font&gt;&lt;/div&gt;" style="strokeWidth=2;html=1;shape=mxgraph.flowchart.decision;whiteSpace=wrap;strokeColor=#FFFF00;" vertex="1" parent="WIyWlLk6GJQsqaUBKTNV-1">
          <mxGeometry x="1030" y="780" width="100" height="100" as="geometry" />
        </mxCell>
        <mxCell id="S6rZOHgfTXkQJhCgSUxU-76" style="edgeStyle=orthogonalEdgeStyle;rounded=0;orthogonalLoop=1;jettySize=auto;html=1;entryX=0;entryY=0.5;entryDx=0;entryDy=0;entryPerimeter=0;" edge="1" parent="WIyWlLk6GJQsqaUBKTNV-1" source="S6rZOHgfTXkQJhCgSUxU-62" target="S6rZOHgfTXkQJhCgSUxU-75">
          <mxGeometry relative="1" as="geometry" />
        </mxCell>
        <mxCell id="S6rZOHgfTXkQJhCgSUxU-78" value="no" style="edgeLabel;html=1;align=center;verticalAlign=middle;resizable=0;points=[];" vertex="1" connectable="0" parent="S6rZOHgfTXkQJhCgSUxU-76">
          <mxGeometry x="-0.2243" y="-1" relative="1" as="geometry">
            <mxPoint as="offset" />
          </mxGeometry>
        </mxCell>
        <mxCell id="S6rZOHgfTXkQJhCgSUxU-83" value="" style="edgeStyle=orthogonalEdgeStyle;rounded=0;orthogonalLoop=1;jettySize=auto;html=1;exitX=0.5;exitY=1;exitDx=0;exitDy=0;exitPerimeter=0;" edge="1" parent="WIyWlLk6GJQsqaUBKTNV-1" target="S6rZOHgfTXkQJhCgSUxU-87" source="S6rZOHgfTXkQJhCgSUxU-75">
          <mxGeometry relative="1" as="geometry">
            <mxPoint x="1090" y="900" as="sourcePoint" />
          </mxGeometry>
        </mxCell>
        <mxCell id="S6rZOHgfTXkQJhCgSUxU-84" value="yes" style="edgeLabel;html=1;align=center;verticalAlign=middle;resizable=0;points=[];" vertex="1" connectable="0" parent="S6rZOHgfTXkQJhCgSUxU-83">
          <mxGeometry x="-0.5783" y="2" relative="1" as="geometry">
            <mxPoint as="offset" />
          </mxGeometry>
        </mxCell>
        <mxCell id="S6rZOHgfTXkQJhCgSUxU-85" style="edgeStyle=orthogonalEdgeStyle;rounded=0;orthogonalLoop=1;jettySize=auto;html=1;entryX=1.004;entryY=0.365;entryDx=0;entryDy=0;entryPerimeter=0;" edge="1" parent="WIyWlLk6GJQsqaUBKTNV-1" source="S6rZOHgfTXkQJhCgSUxU-87" target="S6rZOHgfTXkQJhCgSUxU-88">
          <mxGeometry relative="1" as="geometry">
            <mxPoint x="1140" y="953.48" as="targetPoint" />
            <Array as="points">
              <mxPoint x="1080" y="1033" />
            </Array>
          </mxGeometry>
        </mxCell>
        <mxCell id="S6rZOHgfTXkQJhCgSUxU-86" value="yes" style="edgeLabel;html=1;align=center;verticalAlign=middle;resizable=0;points=[];" vertex="1" connectable="0" parent="S6rZOHgfTXkQJhCgSUxU-85">
          <mxGeometry x="-0.1528" y="-1" relative="1" as="geometry">
            <mxPoint x="1" y="-3" as="offset" />
          </mxGeometry>
        </mxCell>
        <mxCell id="S6rZOHgfTXkQJhCgSUxU-90" style="edgeStyle=orthogonalEdgeStyle;rounded=0;orthogonalLoop=1;jettySize=auto;html=1;exitX=1;exitY=0.5;exitDx=0;exitDy=0;exitPerimeter=0;" edge="1" parent="WIyWlLk6GJQsqaUBKTNV-1" source="S6rZOHgfTXkQJhCgSUxU-87">
          <mxGeometry relative="1" as="geometry">
            <mxPoint x="1130" y="1120" as="targetPoint" />
            <Array as="points">
              <mxPoint x="1130" y="1100" />
              <mxPoint x="1130" y="1100" />
            </Array>
          </mxGeometry>
        </mxCell>
        <mxCell id="S6rZOHgfTXkQJhCgSUxU-136" value="no" style="edgeLabel;html=1;align=center;verticalAlign=middle;resizable=0;points=[];" vertex="1" connectable="0" parent="S6rZOHgfTXkQJhCgSUxU-90">
          <mxGeometry x="-0.2096" relative="1" as="geometry">
            <mxPoint as="offset" />
          </mxGeometry>
        </mxCell>
        <mxCell id="S6rZOHgfTXkQJhCgSUxU-87" value="not resep" style="strokeWidth=2;html=1;shape=mxgraph.flowchart.decision;whiteSpace=wrap;strokeColor=#FFFF00;" vertex="1" parent="WIyWlLk6GJQsqaUBKTNV-1">
          <mxGeometry x="1030" y="913.48" width="100" height="100" as="geometry" />
        </mxCell>
        <mxCell id="S6rZOHgfTXkQJhCgSUxU-89" style="edgeStyle=orthogonalEdgeStyle;rounded=0;orthogonalLoop=1;jettySize=auto;html=1;strokeColor=#FFFF33;" edge="1" parent="WIyWlLk6GJQsqaUBKTNV-1" source="S6rZOHgfTXkQJhCgSUxU-88">
          <mxGeometry relative="1" as="geometry">
            <mxPoint x="810" y="1160" as="targetPoint" />
            <Array as="points">
              <mxPoint x="1025" y="1160" />
            </Array>
          </mxGeometry>
        </mxCell>
        <mxCell id="S6rZOHgfTXkQJhCgSUxU-88" value="&lt;font style=&quot;font-size: 11px;&quot;&gt;print(&quot;tidak ada&lt;/font&gt;&lt;div style=&quot;font-size: 11px;&quot;&gt;&lt;font style=&quot;font-size: 11px;&quot;&gt;resep&quot;&lt;/font&gt;&lt;/div&gt;" style="rounded=1;whiteSpace=wrap;html=1;absoluteArcSize=1;arcSize=14;strokeWidth=2;strokeColor=#FFFF00;" vertex="1" parent="WIyWlLk6GJQsqaUBKTNV-1">
          <mxGeometry x="990" y="1003.48" width="70" height="80" as="geometry" />
        </mxCell>
        <mxCell id="S6rZOHgfTXkQJhCgSUxU-95" value="" style="edgeStyle=orthogonalEdgeStyle;rounded=0;orthogonalLoop=1;jettySize=auto;html=1;" edge="1" parent="WIyWlLk6GJQsqaUBKTNV-1" source="S6rZOHgfTXkQJhCgSUxU-91">
          <mxGeometry relative="1" as="geometry">
            <mxPoint x="1130" y="1190" as="targetPoint" />
          </mxGeometry>
        </mxCell>
        <mxCell id="S6rZOHgfTXkQJhCgSUxU-91" value="menampilkan&lt;div&gt;list resep&lt;/div&gt;" style="rounded=1;whiteSpace=wrap;html=1;absoluteArcSize=1;arcSize=14;strokeWidth=2;strokeColor=#FFFF00;" vertex="1" parent="WIyWlLk6GJQsqaUBKTNV-1">
          <mxGeometry x="1080" y="1120" width="100" height="40" as="geometry" />
        </mxCell>
        <mxCell id="S6rZOHgfTXkQJhCgSUxU-97" value="" style="edgeStyle=orthogonalEdgeStyle;rounded=0;orthogonalLoop=1;jettySize=auto;html=1;" edge="1" parent="WIyWlLk6GJQsqaUBKTNV-1" target="S6rZOHgfTXkQJhCgSUxU-96">
          <mxGeometry relative="1" as="geometry">
            <mxPoint x="1130" y="1250" as="sourcePoint" />
          </mxGeometry>
        </mxCell>
        <mxCell id="S6rZOHgfTXkQJhCgSUxU-100" style="edgeStyle=orthogonalEdgeStyle;rounded=0;orthogonalLoop=1;jettySize=auto;html=1;entryX=0;entryY=0.5;entryDx=0;entryDy=0;" edge="1" parent="WIyWlLk6GJQsqaUBKTNV-1" source="S6rZOHgfTXkQJhCgSUxU-96" target="S6rZOHgfTXkQJhCgSUxU-91">
          <mxGeometry relative="1" as="geometry">
            <mxPoint x="1040" y="1150" as="targetPoint" />
            <Array as="points">
              <mxPoint x="1041" y="1340" />
              <mxPoint x="1041" y="1140" />
            </Array>
          </mxGeometry>
        </mxCell>
        <mxCell id="S6rZOHgfTXkQJhCgSUxU-102" value="no" style="edgeLabel;html=1;align=center;verticalAlign=middle;resizable=0;points=[];" vertex="1" connectable="0" parent="S6rZOHgfTXkQJhCgSUxU-100">
          <mxGeometry x="-0.6948" y="1" relative="1" as="geometry">
            <mxPoint as="offset" />
          </mxGeometry>
        </mxCell>
        <mxCell id="S6rZOHgfTXkQJhCgSUxU-103" style="edgeStyle=orthogonalEdgeStyle;rounded=0;orthogonalLoop=1;jettySize=auto;html=1;" edge="1" parent="WIyWlLk6GJQsqaUBKTNV-1" source="S6rZOHgfTXkQJhCgSUxU-96">
          <mxGeometry relative="1" as="geometry">
            <mxPoint x="1130" y="1430" as="targetPoint" />
          </mxGeometry>
        </mxCell>
        <mxCell id="S6rZOHgfTXkQJhCgSUxU-137" value="yes" style="edgeLabel;html=1;align=center;verticalAlign=middle;resizable=0;points=[];" vertex="1" connectable="0" parent="S6rZOHgfTXkQJhCgSUxU-103">
          <mxGeometry x="-0.2841" y="2" relative="1" as="geometry">
            <mxPoint as="offset" />
          </mxGeometry>
        </mxCell>
        <mxCell id="S6rZOHgfTXkQJhCgSUxU-96" value="&lt;div style=&quot;color: rgb(204, 204, 204); font-family: Consolas, &amp;quot;Courier New&amp;quot;, monospace; line-height: 19px; white-space: pre; font-size: 10px;&quot;&gt;&lt;span style=&quot;color: #b5cea8;&quot;&gt;1&lt;/span&gt; &lt;span style=&quot;color: #d4d4d4;&quot;&gt;&amp;lt;=&lt;/span&gt; &lt;span style=&quot;color: rgb(156, 220, 254); font-size: 8px;&quot;&gt;pilihanubah&lt;/span&gt;&lt;/div&gt;&lt;div style=&quot;color: rgb(204, 204, 204); font-family: Consolas, &amp;quot;Courier New&amp;quot;, monospace; line-height: 20%; white-space: pre; font-size: 8px;&quot;&gt; &lt;span style=&quot;color: #d4d4d4;&quot;&gt;&amp;lt;=&lt;/span&gt; &lt;span style=&quot;color: #dcdcaa;&quot;&gt;len&lt;/span&gt;(&lt;span style=&quot;color: #9cdcfe;&quot;&gt;resep&lt;/span&gt;)&lt;/div&gt;" style="strokeWidth=2;html=1;shape=mxgraph.flowchart.decision;whiteSpace=wrap;labelBackgroundColor=none;strokeColor=#FFFF00;" vertex="1" parent="WIyWlLk6GJQsqaUBKTNV-1">
          <mxGeometry x="1080" y="1290" width="100" height="100" as="geometry" />
        </mxCell>
        <mxCell id="S6rZOHgfTXkQJhCgSUxU-99" value="&lt;font style=&quot;font-size: 11px;&quot;&gt;pilihanubah = input(&quot;masukkan&lt;/font&gt;&lt;div style=&quot;font-size: 11px;&quot;&gt;nomor resep&lt;/div&gt;&lt;div style=&quot;font-size: 11px;&quot;&gt;yang tersedia&quot;&lt;/div&gt;" style="shape=parallelogram;html=1;strokeWidth=2;perimeter=parallelogramPerimeter;whiteSpace=wrap;rounded=1;arcSize=12;size=0.23;strokeColor=#FFFF00;" vertex="1" parent="WIyWlLk6GJQsqaUBKTNV-1">
          <mxGeometry x="1060" y="1190" width="130" height="70" as="geometry" />
        </mxCell>
        <mxCell id="S6rZOHgfTXkQJhCgSUxU-101" value="print(&quot;salah input nomor&quot;)" style="rounded=1;whiteSpace=wrap;html=1;absoluteArcSize=1;arcSize=14;strokeWidth=2;strokeColor=#FFFF00;" vertex="1" parent="WIyWlLk6GJQsqaUBKTNV-1">
          <mxGeometry x="950" y="1190" width="100" height="60" as="geometry" />
        </mxCell>
        <mxCell id="S6rZOHgfTXkQJhCgSUxU-105" style="edgeStyle=orthogonalEdgeStyle;rounded=0;orthogonalLoop=1;jettySize=auto;html=1;exitX=0.5;exitY=1;exitDx=0;exitDy=0;entryX=0.5;entryY=0;entryDx=0;entryDy=0;" edge="1" parent="WIyWlLk6GJQsqaUBKTNV-1" source="S6rZOHgfTXkQJhCgSUxU-106" target="S6rZOHgfTXkQJhCgSUxU-107">
          <mxGeometry relative="1" as="geometry" />
        </mxCell>
        <mxCell id="S6rZOHgfTXkQJhCgSUxU-106" value="while True:" style="rounded=1;whiteSpace=wrap;html=1;absoluteArcSize=1;arcSize=14;strokeWidth=2;strokeColor=#FFFF00;" vertex="1" parent="WIyWlLk6GJQsqaUBKTNV-1">
          <mxGeometry x="1090" y="1430" width="90" height="50" as="geometry" />
        </mxCell>
        <mxCell id="S6rZOHgfTXkQJhCgSUxU-107" value="stepresep" style="shape=parallelogram;html=1;strokeWidth=2;perimeter=parallelogramPerimeter;whiteSpace=wrap;rounded=1;arcSize=12;size=0.23;strokeColor=#FFFF00;" vertex="1" parent="WIyWlLk6GJQsqaUBKTNV-1">
          <mxGeometry x="1080" y="1510" width="100" height="60" as="geometry" />
        </mxCell>
        <mxCell id="S6rZOHgfTXkQJhCgSUxU-109" style="edgeStyle=orthogonalEdgeStyle;rounded=0;orthogonalLoop=1;jettySize=auto;html=1;entryX=1;entryY=0.366;entryDx=0;entryDy=0;entryPerimeter=0;" edge="1" parent="WIyWlLk6GJQsqaUBKTNV-1" source="S6rZOHgfTXkQJhCgSUxU-111">
          <mxGeometry relative="1" as="geometry">
            <mxPoint x="1180" y="1450" as="targetPoint" />
            <Array as="points">
              <mxPoint x="1200" y="1642" />
              <mxPoint x="1200" y="1450" />
            </Array>
          </mxGeometry>
        </mxCell>
        <mxCell id="S6rZOHgfTXkQJhCgSUxU-110" value="no" style="edgeLabel;html=1;align=center;verticalAlign=middle;resizable=0;points=[];" vertex="1" connectable="0" parent="S6rZOHgfTXkQJhCgSUxU-109">
          <mxGeometry x="0.2419" y="2" relative="1" as="geometry">
            <mxPoint as="offset" />
          </mxGeometry>
        </mxCell>
        <mxCell id="S6rZOHgfTXkQJhCgSUxU-113" style="edgeStyle=orthogonalEdgeStyle;rounded=0;orthogonalLoop=1;jettySize=auto;html=1;strokeColor=#FFFF00;" edge="1" parent="WIyWlLk6GJQsqaUBKTNV-1" source="S6rZOHgfTXkQJhCgSUxU-111">
          <mxGeometry relative="1" as="geometry">
            <mxPoint x="870" y="1170" as="targetPoint" />
          </mxGeometry>
        </mxCell>
        <mxCell id="S6rZOHgfTXkQJhCgSUxU-114" value="yes" style="edgeLabel;html=1;align=center;verticalAlign=middle;resizable=0;points=[];" vertex="1" connectable="0" parent="S6rZOHgfTXkQJhCgSUxU-113">
          <mxGeometry x="0.1388" relative="1" as="geometry">
            <mxPoint as="offset" />
          </mxGeometry>
        </mxCell>
        <mxCell id="S6rZOHgfTXkQJhCgSUxU-111" value="stepresep ==&lt;div&gt;&quot;berhenti&quot;&lt;/div&gt;" style="strokeWidth=2;html=1;shape=mxgraph.flowchart.decision;whiteSpace=wrap;strokeColor=#FFFF00;" vertex="1" parent="WIyWlLk6GJQsqaUBKTNV-1">
          <mxGeometry x="1080" y="1592" width="100" height="100" as="geometry" />
        </mxCell>
        <mxCell id="S6rZOHgfTXkQJhCgSUxU-112" style="edgeStyle=orthogonalEdgeStyle;rounded=0;orthogonalLoop=1;jettySize=auto;html=1;entryX=0.5;entryY=0;entryDx=0;entryDy=0;entryPerimeter=0;" edge="1" parent="WIyWlLk6GJQsqaUBKTNV-1" source="S6rZOHgfTXkQJhCgSUxU-107" target="S6rZOHgfTXkQJhCgSUxU-111">
          <mxGeometry relative="1" as="geometry" />
        </mxCell>
        <mxCell id="S6rZOHgfTXkQJhCgSUxU-119" value="&lt;div style=&quot;color: rgb(204, 204, 204); font-family: Consolas, &amp;quot;Courier New&amp;quot;, monospace; line-height: 19px; white-space: pre; font-size: 11px;&quot;&gt;&lt;span style=&quot;color: #9cdcfe;&quot;&gt;resep&lt;/span&gt;.&lt;span style=&quot;color: #dcdcaa;&quot;&gt;append&lt;/span&gt;&lt;/div&gt;&lt;div style=&quot;color: rgb(204, 204, 204); font-family: Consolas, &amp;quot;Courier New&amp;quot;, monospace; line-height: 19px; white-space: pre; font-size: 11px;&quot;&gt;([&lt;span style=&quot;color: #9cdcfe;&quot;&gt;judul&lt;/span&gt;,&lt;/div&gt;&lt;div style=&quot;color: rgb(204, 204, 204); font-family: Consolas, &amp;quot;Courier New&amp;quot;, monospace; line-height: 19px; white-space: pre; font-size: 11px;&quot;&gt;&lt;span style=&quot;color: #9cdcfe;&quot;&gt;stepresep&lt;/span&gt;])&lt;/div&gt;" style="rounded=1;whiteSpace=wrap;html=1;absoluteArcSize=1;arcSize=14;strokeWidth=2;labelBackgroundColor=none;strokeColor=#FFFF00;" vertex="1" parent="WIyWlLk6GJQsqaUBKTNV-1">
          <mxGeometry x="820" y="1280" width="100" height="100" as="geometry" />
        </mxCell>
        <mxCell id="S6rZOHgfTXkQJhCgSUxU-124" value="&lt;font style=&quot;font-size: 11px;&quot;&gt;pilihanresep ==&lt;/font&gt;&lt;div style=&quot;font-size: 11px;&quot;&gt;&lt;font style=&quot;font-size: 11px;&quot;&gt;4&lt;/font&gt;&lt;/div&gt;" style="strokeWidth=2;html=1;shape=mxgraph.flowchart.decision;whiteSpace=wrap;strokeColor=#80FF00;" vertex="1" parent="WIyWlLk6GJQsqaUBKTNV-1">
          <mxGeometry x="1180" y="780" width="100" height="100" as="geometry" />
        </mxCell>
        <mxCell id="S6rZOHgfTXkQJhCgSUxU-125" style="edgeStyle=orthogonalEdgeStyle;rounded=0;orthogonalLoop=1;jettySize=auto;html=1;entryX=0;entryY=0.5;entryDx=0;entryDy=0;entryPerimeter=0;" edge="1" parent="WIyWlLk6GJQsqaUBKTNV-1" source="S6rZOHgfTXkQJhCgSUxU-75" target="S6rZOHgfTXkQJhCgSUxU-124">
          <mxGeometry relative="1" as="geometry" />
        </mxCell>
        <mxCell id="S6rZOHgfTXkQJhCgSUxU-126" value="no" style="edgeLabel;html=1;align=center;verticalAlign=middle;resizable=0;points=[];" vertex="1" connectable="0" parent="S6rZOHgfTXkQJhCgSUxU-125">
          <mxGeometry x="-0.3133" y="-1" relative="1" as="geometry">
            <mxPoint as="offset" />
          </mxGeometry>
        </mxCell>
        <mxCell id="S6rZOHgfTXkQJhCgSUxU-131" value="" style="edgeStyle=orthogonalEdgeStyle;rounded=0;orthogonalLoop=1;jettySize=auto;html=1;" edge="1" parent="WIyWlLk6GJQsqaUBKTNV-1" source="S6rZOHgfTXkQJhCgSUxU-128" target="S6rZOHgfTXkQJhCgSUxU-129">
          <mxGeometry relative="1" as="geometry" />
        </mxCell>
        <mxCell id="S6rZOHgfTXkQJhCgSUxU-132" value="yes" style="edgeLabel;html=1;align=center;verticalAlign=middle;resizable=0;points=[];" vertex="1" connectable="0" parent="S6rZOHgfTXkQJhCgSUxU-131">
          <mxGeometry x="-0.3113" relative="1" as="geometry">
            <mxPoint as="offset" />
          </mxGeometry>
        </mxCell>
        <mxCell id="S6rZOHgfTXkQJhCgSUxU-139" style="edgeStyle=orthogonalEdgeStyle;rounded=0;orthogonalLoop=1;jettySize=auto;html=1;entryX=0.5;entryY=0;entryDx=0;entryDy=0;" edge="1" parent="WIyWlLk6GJQsqaUBKTNV-1" source="S6rZOHgfTXkQJhCgSUxU-128" target="S6rZOHgfTXkQJhCgSUxU-138">
          <mxGeometry relative="1" as="geometry">
            <mxPoint x="1310" y="963.48" as="targetPoint" />
            <Array as="points">
              <mxPoint x="1305" y="964" />
            </Array>
          </mxGeometry>
        </mxCell>
        <mxCell id="S6rZOHgfTXkQJhCgSUxU-140" value="no" style="edgeLabel;html=1;align=center;verticalAlign=middle;resizable=0;points=[];" vertex="1" connectable="0" parent="S6rZOHgfTXkQJhCgSUxU-139">
          <mxGeometry x="-0.2257" y="1" relative="1" as="geometry">
            <mxPoint as="offset" />
          </mxGeometry>
        </mxCell>
        <mxCell id="S6rZOHgfTXkQJhCgSUxU-128" value="not resep" style="strokeWidth=2;html=1;shape=mxgraph.flowchart.decision;whiteSpace=wrap;strokeColor=#80FF00;" vertex="1" parent="WIyWlLk6GJQsqaUBKTNV-1">
          <mxGeometry x="1180" y="913.48" width="100" height="100" as="geometry" />
        </mxCell>
        <mxCell id="S6rZOHgfTXkQJhCgSUxU-133" style="edgeStyle=orthogonalEdgeStyle;rounded=0;orthogonalLoop=1;jettySize=auto;html=1;strokeColor=#80FF00;" edge="1" parent="WIyWlLk6GJQsqaUBKTNV-1" source="S6rZOHgfTXkQJhCgSUxU-129">
          <mxGeometry relative="1" as="geometry">
            <mxPoint x="760" y="1160" as="targetPoint" />
            <Array as="points">
              <mxPoint x="1230" y="1720" />
              <mxPoint x="760" y="1720" />
            </Array>
          </mxGeometry>
        </mxCell>
        <mxCell id="S6rZOHgfTXkQJhCgSUxU-129" value="&lt;font style=&quot;font-size: 11px;&quot;&gt;print(&quot;tidak ada&lt;/font&gt;&lt;div style=&quot;font-size: 11px;&quot;&gt;&lt;font style=&quot;font-size: 11px;&quot;&gt;resep&quot;&lt;/font&gt;&lt;/div&gt;" style="rounded=1;whiteSpace=wrap;html=1;absoluteArcSize=1;arcSize=14;strokeWidth=2;strokeColor=#80FF00;" vertex="1" parent="WIyWlLk6GJQsqaUBKTNV-1">
          <mxGeometry x="1195" y="1060" width="70" height="80" as="geometry" />
        </mxCell>
        <mxCell id="S6rZOHgfTXkQJhCgSUxU-130" style="edgeStyle=orthogonalEdgeStyle;rounded=0;orthogonalLoop=1;jettySize=auto;html=1;entryX=0.5;entryY=0;entryDx=0;entryDy=0;entryPerimeter=0;" edge="1" parent="WIyWlLk6GJQsqaUBKTNV-1" source="S6rZOHgfTXkQJhCgSUxU-124" target="S6rZOHgfTXkQJhCgSUxU-128">
          <mxGeometry relative="1" as="geometry" />
        </mxCell>
        <mxCell id="S6rZOHgfTXkQJhCgSUxU-156" value="yes" style="edgeLabel;html=1;align=center;verticalAlign=middle;resizable=0;points=[];" vertex="1" connectable="0" parent="S6rZOHgfTXkQJhCgSUxU-130">
          <mxGeometry x="0.0594" y="2" relative="1" as="geometry">
            <mxPoint as="offset" />
          </mxGeometry>
        </mxCell>
        <mxCell id="S6rZOHgfTXkQJhCgSUxU-141" style="edgeStyle=orthogonalEdgeStyle;rounded=0;orthogonalLoop=1;jettySize=auto;html=1;" edge="1" parent="WIyWlLk6GJQsqaUBKTNV-1" source="S6rZOHgfTXkQJhCgSUxU-138">
          <mxGeometry relative="1" as="geometry">
            <mxPoint x="1305" y="1270" as="targetPoint" />
          </mxGeometry>
        </mxCell>
        <mxCell id="S6rZOHgfTXkQJhCgSUxU-138" value="Menampilkan list&lt;div&gt;judul dan isi resep&lt;/div&gt;" style="rounded=1;whiteSpace=wrap;html=1;absoluteArcSize=1;arcSize=14;strokeWidth=2;strokeColor=#80FF00;" vertex="1" parent="WIyWlLk6GJQsqaUBKTNV-1">
          <mxGeometry x="1250" y="1180" width="110" height="40" as="geometry" />
        </mxCell>
        <mxCell id="S6rZOHgfTXkQJhCgSUxU-144" value="" style="edgeStyle=orthogonalEdgeStyle;rounded=0;orthogonalLoop=1;jettySize=auto;html=1;" edge="1" parent="WIyWlLk6GJQsqaUBKTNV-1" source="S6rZOHgfTXkQJhCgSUxU-142" target="S6rZOHgfTXkQJhCgSUxU-143">
          <mxGeometry relative="1" as="geometry" />
        </mxCell>
        <mxCell id="S6rZOHgfTXkQJhCgSUxU-149" value="yes" style="edgeLabel;html=1;align=center;verticalAlign=middle;resizable=0;points=[];" vertex="1" connectable="0" parent="S6rZOHgfTXkQJhCgSUxU-144">
          <mxGeometry x="0.719" y="-3" relative="1" as="geometry">
            <mxPoint as="offset" />
          </mxGeometry>
        </mxCell>
        <mxCell id="S6rZOHgfTXkQJhCgSUxU-142" value="&lt;font style=&quot;font-size: 11px;&quot;&gt;pilihanhapus = input(&quot;masukkan&lt;/font&gt;&lt;div style=&quot;font-size: 11px;&quot;&gt;nomor resep&lt;/div&gt;&lt;div style=&quot;font-size: 11px;&quot;&gt;yang tersedia&quot;&lt;/div&gt;" style="shape=parallelogram;html=1;strokeWidth=2;perimeter=parallelogramPerimeter;whiteSpace=wrap;rounded=1;arcSize=12;size=0.23;strokeColor=#80FF00;" vertex="1" parent="WIyWlLk6GJQsqaUBKTNV-1">
          <mxGeometry x="1240" y="1270" width="130" height="70" as="geometry" />
        </mxCell>
        <mxCell id="S6rZOHgfTXkQJhCgSUxU-151" style="edgeStyle=orthogonalEdgeStyle;rounded=0;orthogonalLoop=1;jettySize=auto;html=1;" edge="1" parent="WIyWlLk6GJQsqaUBKTNV-1" source="S6rZOHgfTXkQJhCgSUxU-143">
          <mxGeometry relative="1" as="geometry">
            <mxPoint x="1230" y="1515" as="targetPoint" />
          </mxGeometry>
        </mxCell>
        <mxCell id="S6rZOHgfTXkQJhCgSUxU-143" value="menghapus resep sesuai dengan nomor pilihanapus" style="rounded=1;whiteSpace=wrap;html=1;absoluteArcSize=1;arcSize=14;strokeWidth=2;strokeColor=#80FF00;" vertex="1" parent="WIyWlLk6GJQsqaUBKTNV-1">
          <mxGeometry x="1262.5" y="1480" width="85" height="70" as="geometry" />
        </mxCell>
        <mxCell id="S6rZOHgfTXkQJhCgSUxU-145" style="edgeStyle=orthogonalEdgeStyle;rounded=0;orthogonalLoop=1;jettySize=auto;html=1;entryX=0.5;entryY=0;entryDx=0;entryDy=0;exitX=1;exitY=0.5;exitDx=0;exitDy=0;exitPerimeter=0;" edge="1" parent="WIyWlLk6GJQsqaUBKTNV-1" source="S6rZOHgfTXkQJhCgSUxU-147" target="S6rZOHgfTXkQJhCgSUxU-148">
          <mxGeometry relative="1" as="geometry">
            <mxPoint x="1550" y="1210" as="targetPoint" />
            <Array as="points">
              <mxPoint x="1380" y="1400" />
            </Array>
            <mxPoint x="1360" y="1420" as="sourcePoint" />
          </mxGeometry>
        </mxCell>
        <mxCell id="S6rZOHgfTXkQJhCgSUxU-146" value="no" style="edgeLabel;html=1;align=center;verticalAlign=middle;resizable=0;points=[];" vertex="1" connectable="0" parent="S6rZOHgfTXkQJhCgSUxU-145">
          <mxGeometry x="-0.6948" y="1" relative="1" as="geometry">
            <mxPoint as="offset" />
          </mxGeometry>
        </mxCell>
        <mxCell id="S6rZOHgfTXkQJhCgSUxU-147" value="&lt;div style=&quot;color: rgb(204, 204, 204); font-family: Consolas, &amp;quot;Courier New&amp;quot;, monospace; line-height: 19px; white-space: pre; font-size: 10px;&quot;&gt;&lt;span style=&quot;color: #b5cea8;&quot;&gt;1&lt;/span&gt; &lt;span style=&quot;color: #d4d4d4;&quot;&gt;&amp;lt;=&lt;/span&gt; &lt;span style=&quot;color: rgb(156, 220, 254); font-size: 8px;&quot;&gt;pilihanresep&lt;/span&gt;&lt;/div&gt;&lt;div style=&quot;color: rgb(204, 204, 204); font-family: Consolas, &amp;quot;Courier New&amp;quot;, monospace; line-height: 20%; white-space: pre; font-size: 8px;&quot;&gt; &lt;span style=&quot;color: #d4d4d4;&quot;&gt;&amp;lt;=&lt;/span&gt; &lt;span style=&quot;color: #dcdcaa;&quot;&gt;len&lt;/span&gt;(&lt;span style=&quot;color: #9cdcfe;&quot;&gt;resep&lt;/span&gt;)&lt;/div&gt;" style="strokeWidth=2;html=1;shape=mxgraph.flowchart.decision;whiteSpace=wrap;labelBackgroundColor=none;strokeColor=#80FF00;" vertex="1" parent="WIyWlLk6GJQsqaUBKTNV-1">
          <mxGeometry x="1255" y="1350" width="100" height="100" as="geometry" />
        </mxCell>
        <mxCell id="S6rZOHgfTXkQJhCgSUxU-150" style="edgeStyle=orthogonalEdgeStyle;rounded=0;orthogonalLoop=1;jettySize=auto;html=1;entryX=1;entryY=0.5;entryDx=0;entryDy=0;" edge="1" parent="WIyWlLk6GJQsqaUBKTNV-1" source="S6rZOHgfTXkQJhCgSUxU-148" target="S6rZOHgfTXkQJhCgSUxU-138">
          <mxGeometry relative="1" as="geometry">
            <mxPoint x="1420" y="1300" as="targetPoint" />
            <Array as="points">
              <mxPoint x="1420" y="1200" />
            </Array>
          </mxGeometry>
        </mxCell>
        <mxCell id="S6rZOHgfTXkQJhCgSUxU-148" value="print(&quot;salah input nomor&quot;)" style="rounded=1;whiteSpace=wrap;html=1;absoluteArcSize=1;arcSize=14;strokeWidth=2;strokeColor=#80FF00;" vertex="1" parent="WIyWlLk6GJQsqaUBKTNV-1">
          <mxGeometry x="1330" y="1570" width="100" height="40" as="geometry" />
        </mxCell>
        <mxCell id="S6rZOHgfTXkQJhCgSUxU-157" style="edgeStyle=orthogonalEdgeStyle;rounded=0;orthogonalLoop=1;jettySize=auto;html=1;entryX=1;entryY=0;entryDx=0;entryDy=0;strokeColor=#00FF80;" edge="1" parent="WIyWlLk6GJQsqaUBKTNV-1" source="S6rZOHgfTXkQJhCgSUxU-152" target="S6rZOHgfTXkQJhCgSUxU-2">
          <mxGeometry relative="1" as="geometry">
            <mxPoint x="789.9999999999995" y="390" as="targetPoint" />
            <Array as="points">
              <mxPoint x="1440" y="830" />
              <mxPoint x="1440" y="220" />
            </Array>
          </mxGeometry>
        </mxCell>
        <mxCell id="S6rZOHgfTXkQJhCgSUxU-158" value="yes" style="edgeLabel;html=1;align=center;verticalAlign=middle;resizable=0;points=[];" vertex="1" connectable="0" parent="S6rZOHgfTXkQJhCgSUxU-157">
          <mxGeometry x="-0.9612" y="1" relative="1" as="geometry">
            <mxPoint as="offset" />
          </mxGeometry>
        </mxCell>
        <mxCell id="S6rZOHgfTXkQJhCgSUxU-159" style="edgeStyle=orthogonalEdgeStyle;rounded=0;orthogonalLoop=1;jettySize=auto;html=1;entryX=1;entryY=0.5;entryDx=0;entryDy=0;strokeColor=#00FF80;" edge="1" parent="WIyWlLk6GJQsqaUBKTNV-1" source="S6rZOHgfTXkQJhCgSUxU-152" target="S6rZOHgfTXkQJhCgSUxU-36">
          <mxGeometry relative="1" as="geometry">
            <mxPoint x="1380" y="630" as="targetPoint" />
            <Array as="points">
              <mxPoint x="1380" y="620" />
            </Array>
          </mxGeometry>
        </mxCell>
        <mxCell id="S6rZOHgfTXkQJhCgSUxU-160" value="no" style="edgeLabel;html=1;align=center;verticalAlign=middle;resizable=0;points=[];" vertex="1" connectable="0" parent="S6rZOHgfTXkQJhCgSUxU-159">
          <mxGeometry x="-0.2009" y="1" relative="1" as="geometry">
            <mxPoint as="offset" />
          </mxGeometry>
        </mxCell>
        <mxCell id="S6rZOHgfTXkQJhCgSUxU-152" value="&lt;font style=&quot;font-size: 11px;&quot;&gt;pilihanresep ==&lt;/font&gt;&lt;div style=&quot;font-size: 11px;&quot;&gt;&lt;font style=&quot;font-size: 11px;&quot;&gt;5&lt;/font&gt;&lt;/div&gt;" style="strokeWidth=2;html=1;shape=mxgraph.flowchart.decision;whiteSpace=wrap;strokeColor=#00FF80;" vertex="1" parent="WIyWlLk6GJQsqaUBKTNV-1">
          <mxGeometry x="1330" y="780" width="100" height="100" as="geometry" />
        </mxCell>
        <mxCell id="S6rZOHgfTXkQJhCgSUxU-153" style="edgeStyle=orthogonalEdgeStyle;rounded=0;orthogonalLoop=1;jettySize=auto;html=1;entryX=0;entryY=0.5;entryDx=0;entryDy=0;entryPerimeter=0;" edge="1" parent="WIyWlLk6GJQsqaUBKTNV-1" source="S6rZOHgfTXkQJhCgSUxU-124" target="S6rZOHgfTXkQJhCgSUxU-152">
          <mxGeometry relative="1" as="geometry" />
        </mxCell>
        <mxCell id="S6rZOHgfTXkQJhCgSUxU-155" value="no" style="edgeLabel;html=1;align=center;verticalAlign=middle;resizable=0;points=[];" vertex="1" connectable="0" parent="S6rZOHgfTXkQJhCgSUxU-153">
          <mxGeometry x="-0.0376" y="-1" relative="1" as="geometry">
            <mxPoint x="1" as="offset" />
          </mxGeometry>
        </mxCell>
        <mxCell id="S6rZOHgfTXkQJhCgSUxU-164" value="&lt;b&gt;SELESAI&lt;/b&gt;" style="strokeWidth=2;html=1;shape=mxgraph.flowchart.terminator;whiteSpace=wrap;fillColor=#76608a;fontColor=#ffffff;strokeColor=#432D57;" vertex="1" parent="WIyWlLk6GJQsqaUBKTNV-1">
          <mxGeometry x="-180" y="680" width="100" height="60" as="geometry" />
        </mxCell>
        <mxCell id="S6rZOHgfTXkQJhCgSUxU-165" style="edgeStyle=orthogonalEdgeStyle;rounded=0;orthogonalLoop=1;jettySize=auto;html=1;entryX=0.361;entryY=-0.019;entryDx=0;entryDy=0;entryPerimeter=0;" edge="1" parent="WIyWlLk6GJQsqaUBKTNV-1" source="S6rZOHgfTXkQJhCgSUxU-11" target="S6rZOHgfTXkQJhCgSUxU-164">
          <mxGeometry relative="1" as="geometry" />
        </mxCell>
        <mxCell id="S6rZOHgfTXkQJhCgSUxU-166" value="yes" style="edgeLabel;html=1;align=center;verticalAlign=middle;resizable=0;points=[];" vertex="1" connectable="0" parent="S6rZOHgfTXkQJhCgSUxU-165">
          <mxGeometry x="-0.1497" y="5" relative="1" as="geometry">
            <mxPoint x="5" y="-13" as="offset" />
          </mxGeometry>
        </mxCell>
        <mxCell id="S6rZOHgfTXkQJhCgSUxU-171" value="" style="edgeStyle=orthogonalEdgeStyle;rounded=0;orthogonalLoop=1;jettySize=auto;html=1;" edge="1" parent="WIyWlLk6GJQsqaUBKTNV-1" source="S6rZOHgfTXkQJhCgSUxU-167" target="S6rZOHgfTXkQJhCgSUxU-170">
          <mxGeometry relative="1" as="geometry" />
        </mxCell>
        <mxCell id="S6rZOHgfTXkQJhCgSUxU-167" value="&lt;div style=&quot;color: rgb(204, 204, 204); font-family: Consolas, &amp;quot;Courier New&amp;quot;, monospace; line-height: 19px; white-space: pre;&quot;&gt;&lt;span style=&quot;color: rgb(206, 145, 120);&quot;&gt;&lt;font style=&quot;font-size: 12px;&quot;&gt;pilihanregister&lt;/font&gt;&lt;/span&gt;&lt;/div&gt;&lt;div style=&quot;color: rgb(204, 204, 204); font-family: Consolas, &amp;quot;Courier New&amp;quot;, monospace; line-height: 19px; white-space: pre;&quot;&gt;&lt;span style=&quot;color: rgb(206, 145, 120);&quot;&gt;&lt;font style=&quot;font-size: 12px;&quot;&gt;&quot;Login / Register / keluar&quot;&lt;/font&gt;&lt;/span&gt;&lt;/div&gt;" style="shape=parallelogram;html=1;strokeWidth=2;perimeter=parallelogramPerimeter;whiteSpace=wrap;rounded=1;arcSize=12;size=0.1111111111111111;labelBackgroundColor=none;" vertex="1" parent="WIyWlLk6GJQsqaUBKTNV-1">
          <mxGeometry x="65" y="690" width="230" height="60" as="geometry" />
        </mxCell>
        <mxCell id="S6rZOHgfTXkQJhCgSUxU-168" style="edgeStyle=orthogonalEdgeStyle;rounded=0;orthogonalLoop=1;jettySize=auto;html=1;exitX=0.5;exitY=1;exitDx=0;exitDy=0;exitPerimeter=0;entryX=0.5;entryY=0;entryDx=0;entryDy=0;" edge="1" parent="WIyWlLk6GJQsqaUBKTNV-1" source="S6rZOHgfTXkQJhCgSUxU-8" target="S6rZOHgfTXkQJhCgSUxU-167">
          <mxGeometry relative="1" as="geometry">
            <mxPoint x="280" y="630" as="targetPoint" />
          </mxGeometry>
        </mxCell>
        <mxCell id="S6rZOHgfTXkQJhCgSUxU-169" value="yes" style="edgeLabel;html=1;align=center;verticalAlign=middle;resizable=0;points=[];" vertex="1" connectable="0" parent="S6rZOHgfTXkQJhCgSUxU-168">
          <mxGeometry x="-0.1684" relative="1" as="geometry">
            <mxPoint as="offset" />
          </mxGeometry>
        </mxCell>
        <mxCell id="S6rZOHgfTXkQJhCgSUxU-177" value="" style="edgeStyle=orthogonalEdgeStyle;rounded=0;orthogonalLoop=1;jettySize=auto;html=1;" edge="1" parent="WIyWlLk6GJQsqaUBKTNV-1" source="S6rZOHgfTXkQJhCgSUxU-170" target="S6rZOHgfTXkQJhCgSUxU-172">
          <mxGeometry relative="1" as="geometry" />
        </mxCell>
        <mxCell id="S6rZOHgfTXkQJhCgSUxU-178" value="yes" style="edgeLabel;html=1;align=center;verticalAlign=middle;resizable=0;points=[];" vertex="1" connectable="0" parent="S6rZOHgfTXkQJhCgSUxU-177">
          <mxGeometry x="-0.4626" y="2" relative="1" as="geometry">
            <mxPoint as="offset" />
          </mxGeometry>
        </mxCell>
        <mxCell id="S6rZOHgfTXkQJhCgSUxU-215" value="" style="edgeStyle=orthogonalEdgeStyle;rounded=0;orthogonalLoop=1;jettySize=auto;html=1;" edge="1" parent="WIyWlLk6GJQsqaUBKTNV-1" source="S6rZOHgfTXkQJhCgSUxU-170" target="S6rZOHgfTXkQJhCgSUxU-214">
          <mxGeometry relative="1" as="geometry" />
        </mxCell>
        <mxCell id="S6rZOHgfTXkQJhCgSUxU-216" value="no" style="edgeLabel;html=1;align=center;verticalAlign=middle;resizable=0;points=[];" vertex="1" connectable="0" parent="S6rZOHgfTXkQJhCgSUxU-215">
          <mxGeometry x="-0.5061" y="-3" relative="1" as="geometry">
            <mxPoint x="-8" y="3" as="offset" />
          </mxGeometry>
        </mxCell>
        <mxCell id="S6rZOHgfTXkQJhCgSUxU-170" value="&lt;font style=&quot;font-size: 11px;&quot;&gt;pilihanregister.lower()&lt;/font&gt;&lt;div style=&quot;font-size: 11px;&quot;&gt;&lt;font style=&quot;font-size: 11px;&quot;&gt;== &quot;login&quot;&lt;/font&gt;&lt;/div&gt;" style="strokeWidth=2;html=1;shape=mxgraph.flowchart.decision;whiteSpace=wrap;strokeColor=#7F00FF;" vertex="1" parent="WIyWlLk6GJQsqaUBKTNV-1">
          <mxGeometry x="110" y="780" width="140" height="110" as="geometry" />
        </mxCell>
        <mxCell id="S6rZOHgfTXkQJhCgSUxU-173" style="edgeStyle=orthogonalEdgeStyle;rounded=0;orthogonalLoop=1;jettySize=auto;html=1;entryX=0.891;entryY=1;entryDx=0;entryDy=0;entryPerimeter=0;exitX=1;exitY=0.5;exitDx=0;exitDy=0;exitPerimeter=0;strokeColor=#8109f9;" edge="1" parent="WIyWlLk6GJQsqaUBKTNV-1" source="S6rZOHgfTXkQJhCgSUxU-172" target="S6rZOHgfTXkQJhCgSUxU-167">
          <mxGeometry relative="1" as="geometry">
            <mxPoint x="290" y="963.48" as="targetPoint" />
            <Array as="points">
              <mxPoint x="270" y="973" />
            </Array>
          </mxGeometry>
        </mxCell>
        <mxCell id="S6rZOHgfTXkQJhCgSUxU-174" value="no" style="edgeLabel;html=1;align=center;verticalAlign=middle;resizable=0;points=[];" vertex="1" connectable="0" parent="S6rZOHgfTXkQJhCgSUxU-173">
          <mxGeometry x="-0.6901" relative="1" as="geometry">
            <mxPoint as="offset" />
          </mxGeometry>
        </mxCell>
        <mxCell id="S6rZOHgfTXkQJhCgSUxU-180" value="" style="edgeStyle=orthogonalEdgeStyle;rounded=0;orthogonalLoop=1;jettySize=auto;html=1;" edge="1" parent="WIyWlLk6GJQsqaUBKTNV-1" source="S6rZOHgfTXkQJhCgSUxU-172" target="S6rZOHgfTXkQJhCgSUxU-179">
          <mxGeometry relative="1" as="geometry" />
        </mxCell>
        <mxCell id="S6rZOHgfTXkQJhCgSUxU-181" value="yes" style="edgeLabel;html=1;align=center;verticalAlign=middle;resizable=0;points=[];" vertex="1" connectable="0" parent="S6rZOHgfTXkQJhCgSUxU-180">
          <mxGeometry x="0.2241" y="-3" relative="1" as="geometry">
            <mxPoint x="3" y="-72" as="offset" />
          </mxGeometry>
        </mxCell>
        <mxCell id="S6rZOHgfTXkQJhCgSUxU-172" value="register == 1" style="strokeWidth=2;html=1;shape=mxgraph.flowchart.decision;whiteSpace=wrap;strokeColor=#7F00FF;" vertex="1" parent="WIyWlLk6GJQsqaUBKTNV-1">
          <mxGeometry x="130" y="923.48" width="100" height="100" as="geometry" />
        </mxCell>
        <mxCell id="S6rZOHgfTXkQJhCgSUxU-176" value="print(&quot;Kamu Belum Register&quot;)" style="rounded=1;whiteSpace=wrap;html=1;absoluteArcSize=1;arcSize=14;strokeWidth=2;strokeColor=#7F00FF;" vertex="1" parent="WIyWlLk6GJQsqaUBKTNV-1">
          <mxGeometry x="260" y="850" width="100" height="57" as="geometry" />
        </mxCell>
        <mxCell id="S6rZOHgfTXkQJhCgSUxU-184" style="edgeStyle=orthogonalEdgeStyle;rounded=0;orthogonalLoop=1;jettySize=auto;html=1;" edge="1" parent="WIyWlLk6GJQsqaUBKTNV-1" source="S6rZOHgfTXkQJhCgSUxU-179" target="S6rZOHgfTXkQJhCgSUxU-182">
          <mxGeometry relative="1" as="geometry">
            <mxPoint x="80" y="1110" as="targetPoint" />
            <Array as="points">
              <mxPoint x="80" y="1270" />
              <mxPoint x="80" y="1111" />
            </Array>
          </mxGeometry>
        </mxCell>
        <mxCell id="S6rZOHgfTXkQJhCgSUxU-185" value="no" style="edgeLabel;html=1;align=center;verticalAlign=middle;resizable=0;points=[];" vertex="1" connectable="0" parent="S6rZOHgfTXkQJhCgSUxU-184">
          <mxGeometry x="0.113" relative="1" as="geometry">
            <mxPoint as="offset" />
          </mxGeometry>
        </mxCell>
        <mxCell id="S6rZOHgfTXkQJhCgSUxU-186" style="edgeStyle=orthogonalEdgeStyle;rounded=0;orthogonalLoop=1;jettySize=auto;html=1;" edge="1" parent="WIyWlLk6GJQsqaUBKTNV-1" source="S6rZOHgfTXkQJhCgSUxU-179">
          <mxGeometry relative="1" as="geometry">
            <mxPoint x="179.99999999999977" y="1350" as="targetPoint" />
          </mxGeometry>
        </mxCell>
        <mxCell id="S6rZOHgfTXkQJhCgSUxU-187" value="yes" style="edgeLabel;html=1;align=center;verticalAlign=middle;resizable=0;points=[];" vertex="1" connectable="0" parent="S6rZOHgfTXkQJhCgSUxU-186">
          <mxGeometry x="-0.3374" relative="1" as="geometry">
            <mxPoint as="offset" />
          </mxGeometry>
        </mxCell>
        <mxCell id="S6rZOHgfTXkQJhCgSUxU-179" value="&lt;font style=&quot;font-size: 9px;&quot;&gt;pengguna == loginnama and penggunapw == loginwpw&lt;/font&gt;" style="strokeWidth=2;html=1;shape=mxgraph.flowchart.decision;whiteSpace=wrap;strokeColor=#7F00FF;" vertex="1" parent="WIyWlLk6GJQsqaUBKTNV-1">
          <mxGeometry x="100" y="1220" width="160" height="100" as="geometry" />
        </mxCell>
        <mxCell id="S6rZOHgfTXkQJhCgSUxU-182" value="&lt;p style=&quot;line-height: 0%;&quot;&gt;&lt;font style=&quot;font-size: 9px;&quot;&gt;loginnama = input&lt;/font&gt;&lt;/p&gt;&lt;p style=&quot;line-height: 110%;&quot;&gt;&lt;font style=&quot;font-size: 9px;&quot;&gt;(&quot;Masukkan Nama Akun&quot;)&lt;/font&gt;&lt;/p&gt;" style="shape=parallelogram;html=1;strokeWidth=2;perimeter=parallelogramPerimeter;whiteSpace=wrap;rounded=1;arcSize=16;size=0.23;strokeColor=#7F00FF;" vertex="1" parent="WIyWlLk6GJQsqaUBKTNV-1">
          <mxGeometry x="120" y="1083" width="150" height="57" as="geometry" />
        </mxCell>
        <mxCell id="S6rZOHgfTXkQJhCgSUxU-183" value="&lt;p style=&quot;line-height: 0%;&quot;&gt;&lt;font style=&quot;font-size: 9px;&quot;&gt;loginpw = input&lt;/font&gt;&lt;/p&gt;&lt;p style=&quot;line-height: 110%;&quot;&gt;&lt;font style=&quot;font-size: 9px;&quot;&gt;(&quot;Masukkan Password&lt;/font&gt;&lt;/p&gt;&lt;p style=&quot;line-height: 0%;&quot;&gt;&lt;font style=&quot;font-size: 9px;&quot;&gt;&amp;nbsp;Akun&quot;)&lt;/font&gt;&lt;/p&gt;" style="shape=parallelogram;html=1;strokeWidth=2;perimeter=parallelogramPerimeter;whiteSpace=wrap;rounded=1;arcSize=16;size=0.23;strokeColor=#7F00FF;" vertex="1" parent="WIyWlLk6GJQsqaUBKTNV-1">
          <mxGeometry x="110" y="1150" width="150" height="57" as="geometry" />
        </mxCell>
        <mxCell id="S6rZOHgfTXkQJhCgSUxU-190" style="edgeStyle=orthogonalEdgeStyle;rounded=0;orthogonalLoop=1;jettySize=auto;html=1;" edge="1" parent="WIyWlLk6GJQsqaUBKTNV-1" source="S6rZOHgfTXkQJhCgSUxU-188">
          <mxGeometry relative="1" as="geometry">
            <mxPoint x="175" y="1470" as="targetPoint" />
          </mxGeometry>
        </mxCell>
        <mxCell id="S6rZOHgfTXkQJhCgSUxU-188" value="pilihanpengguna =&lt;div&gt;&amp;nbsp;input(&quot;Pilih Nomor Berikut&lt;div&gt;1. Tampilkan Resep&lt;/div&gt;&lt;div&gt;2. Keluar&lt;/div&gt;&lt;/div&gt;" style="shape=parallelogram;html=1;strokeWidth=2;perimeter=parallelogramPerimeter;whiteSpace=wrap;rounded=1;arcSize=0;size=0.23;strokeColor=#7F00FF;" vertex="1" parent="WIyWlLk6GJQsqaUBKTNV-1">
          <mxGeometry x="80" y="1350" width="190" height="80" as="geometry" />
        </mxCell>
        <mxCell id="S6rZOHgfTXkQJhCgSUxU-203" value="" style="edgeStyle=orthogonalEdgeStyle;rounded=0;orthogonalLoop=1;jettySize=auto;html=1;" edge="1" parent="WIyWlLk6GJQsqaUBKTNV-1" source="S6rZOHgfTXkQJhCgSUxU-189" target="S6rZOHgfTXkQJhCgSUxU-199">
          <mxGeometry relative="1" as="geometry" />
        </mxCell>
        <mxCell id="S6rZOHgfTXkQJhCgSUxU-204" value="yes" style="edgeLabel;html=1;align=center;verticalAlign=middle;resizable=0;points=[];" vertex="1" connectable="0" parent="S6rZOHgfTXkQJhCgSUxU-203">
          <mxGeometry x="-0.0435" relative="1" as="geometry">
            <mxPoint x="1" as="offset" />
          </mxGeometry>
        </mxCell>
        <mxCell id="S6rZOHgfTXkQJhCgSUxU-208" value="" style="edgeStyle=orthogonalEdgeStyle;rounded=0;orthogonalLoop=1;jettySize=auto;html=1;" edge="1" parent="WIyWlLk6GJQsqaUBKTNV-1" source="S6rZOHgfTXkQJhCgSUxU-189" target="S6rZOHgfTXkQJhCgSUxU-207">
          <mxGeometry relative="1" as="geometry" />
        </mxCell>
        <mxCell id="S6rZOHgfTXkQJhCgSUxU-209" value="no" style="edgeLabel;html=1;align=center;verticalAlign=middle;resizable=0;points=[];" vertex="1" connectable="0" parent="S6rZOHgfTXkQJhCgSUxU-208">
          <mxGeometry x="-0.3167" y="3" relative="1" as="geometry">
            <mxPoint as="offset" />
          </mxGeometry>
        </mxCell>
        <mxCell id="S6rZOHgfTXkQJhCgSUxU-189" value="pilihanpengguna&amp;nbsp;&lt;div&gt;== &quot;1&quot;&lt;/div&gt;" style="strokeWidth=2;html=1;shape=mxgraph.flowchart.decision;whiteSpace=wrap;strokeColor=#7F00FF;" vertex="1" parent="WIyWlLk6GJQsqaUBKTNV-1">
          <mxGeometry x="117.5" y="1470" width="115" height="120" as="geometry" />
        </mxCell>
        <mxCell id="S6rZOHgfTXkQJhCgSUxU-195" style="edgeStyle=orthogonalEdgeStyle;rounded=0;orthogonalLoop=1;jettySize=auto;html=1;entryX=0;entryY=0.5;entryDx=0;entryDy=0;" edge="1" parent="WIyWlLk6GJQsqaUBKTNV-1" source="S6rZOHgfTXkQJhCgSUxU-199" target="S6rZOHgfTXkQJhCgSUxU-200">
          <mxGeometry relative="1" as="geometry">
            <mxPoint x="310" y="1550" as="targetPoint" />
          </mxGeometry>
        </mxCell>
        <mxCell id="S6rZOHgfTXkQJhCgSUxU-196" value="yes" style="edgeLabel;html=1;align=center;verticalAlign=middle;resizable=0;points=[];" vertex="1" connectable="0" parent="S6rZOHgfTXkQJhCgSUxU-195">
          <mxGeometry x="-0.1528" y="-1" relative="1" as="geometry">
            <mxPoint as="offset" />
          </mxGeometry>
        </mxCell>
        <mxCell id="S6rZOHgfTXkQJhCgSUxU-197" value="" style="edgeStyle=orthogonalEdgeStyle;rounded=0;orthogonalLoop=1;jettySize=auto;html=1;" edge="1" parent="WIyWlLk6GJQsqaUBKTNV-1" source="S6rZOHgfTXkQJhCgSUxU-199" target="S6rZOHgfTXkQJhCgSUxU-202">
          <mxGeometry relative="1" as="geometry" />
        </mxCell>
        <mxCell id="S6rZOHgfTXkQJhCgSUxU-198" value="no" style="edgeLabel;html=1;align=center;verticalAlign=middle;resizable=0;points=[];" vertex="1" connectable="0" parent="S6rZOHgfTXkQJhCgSUxU-197">
          <mxGeometry x="-0.0148" relative="1" as="geometry">
            <mxPoint as="offset" />
          </mxGeometry>
        </mxCell>
        <mxCell id="S6rZOHgfTXkQJhCgSUxU-199" value="not resep" style="strokeWidth=2;html=1;shape=mxgraph.flowchart.decision;whiteSpace=wrap;strokeColor=#FF8000;" vertex="1" parent="WIyWlLk6GJQsqaUBKTNV-1">
          <mxGeometry x="290" y="1480" width="100" height="100" as="geometry" />
        </mxCell>
        <mxCell id="S6rZOHgfTXkQJhCgSUxU-205" style="edgeStyle=orthogonalEdgeStyle;rounded=0;orthogonalLoop=1;jettySize=auto;html=1;entryX=1;entryY=0.25;entryDx=0;entryDy=0;" edge="1" parent="WIyWlLk6GJQsqaUBKTNV-1" source="S6rZOHgfTXkQJhCgSUxU-200" target="S6rZOHgfTXkQJhCgSUxU-188">
          <mxGeometry relative="1" as="geometry">
            <Array as="points">
              <mxPoint x="470" y="1373" />
            </Array>
          </mxGeometry>
        </mxCell>
        <mxCell id="S6rZOHgfTXkQJhCgSUxU-200" value="&lt;font style=&quot;font-size: 11px;&quot;&gt;print(&quot;tidak ada&lt;/font&gt;&lt;div style=&quot;font-size: 11px;&quot;&gt;&lt;font style=&quot;font-size: 11px;&quot;&gt;resep&quot;&lt;/font&gt;&lt;/div&gt;" style="rounded=1;whiteSpace=wrap;html=1;absoluteArcSize=1;arcSize=14;strokeWidth=2;strokeColor=#FF8000;" vertex="1" parent="WIyWlLk6GJQsqaUBKTNV-1">
          <mxGeometry x="440" y="1490" width="70" height="80" as="geometry" />
        </mxCell>
        <mxCell id="S6rZOHgfTXkQJhCgSUxU-201" style="edgeStyle=orthogonalEdgeStyle;rounded=0;orthogonalLoop=1;jettySize=auto;html=1;" edge="1" parent="WIyWlLk6GJQsqaUBKTNV-1" source="S6rZOHgfTXkQJhCgSUxU-202">
          <mxGeometry relative="1" as="geometry">
            <mxPoint x="470" y="1370" as="targetPoint" />
            <Array as="points">
              <mxPoint x="530" y="1670" />
              <mxPoint x="530" y="1370" />
            </Array>
          </mxGeometry>
        </mxCell>
        <mxCell id="S6rZOHgfTXkQJhCgSUxU-202" value="Menampilkan list&lt;div&gt;judul dan isi resep&lt;/div&gt;" style="rounded=1;whiteSpace=wrap;html=1;absoluteArcSize=1;arcSize=14;strokeWidth=2;strokeColor=#FF8000;" vertex="1" parent="WIyWlLk6GJQsqaUBKTNV-1">
          <mxGeometry x="280" y="1640" width="110" height="40" as="geometry" />
        </mxCell>
        <mxCell id="S6rZOHgfTXkQJhCgSUxU-206" style="edgeStyle=orthogonalEdgeStyle;rounded=0;orthogonalLoop=1;jettySize=auto;html=1;" edge="1" parent="WIyWlLk6GJQsqaUBKTNV-1" source="S6rZOHgfTXkQJhCgSUxU-202">
          <mxGeometry relative="1" as="geometry">
            <mxPoint x="470" y="1370" as="targetPoint" />
            <mxPoint x="390" y="1670" as="sourcePoint" />
            <Array as="points">
              <mxPoint x="530" y="1670" />
              <mxPoint x="530" y="1370" />
            </Array>
          </mxGeometry>
        </mxCell>
        <mxCell id="S6rZOHgfTXkQJhCgSUxU-210" style="edgeStyle=orthogonalEdgeStyle;rounded=0;orthogonalLoop=1;jettySize=auto;html=1;exitX=0;exitY=0.5;exitDx=0;exitDy=0;exitPerimeter=0;strokeColor=#8109f9;" edge="1" parent="WIyWlLk6GJQsqaUBKTNV-1" source="S6rZOHgfTXkQJhCgSUxU-207">
          <mxGeometry relative="1" as="geometry">
            <mxPoint x="-280" y="1330" as="targetPoint" />
            <mxPoint x="-115" y="1720" as="sourcePoint" />
            <Array as="points">
              <mxPoint x="-280" y="1690" />
            </Array>
          </mxGeometry>
        </mxCell>
        <mxCell id="S6rZOHgfTXkQJhCgSUxU-211" value="yes" style="edgeLabel;html=1;align=center;verticalAlign=middle;resizable=0;points=[];" vertex="1" connectable="0" parent="S6rZOHgfTXkQJhCgSUxU-210">
          <mxGeometry x="-0.964" y="2" relative="1" as="geometry">
            <mxPoint as="offset" />
          </mxGeometry>
        </mxCell>
        <mxCell id="S6rZOHgfTXkQJhCgSUxU-212" style="edgeStyle=orthogonalEdgeStyle;rounded=0;orthogonalLoop=1;jettySize=auto;html=1;" edge="1" parent="WIyWlLk6GJQsqaUBKTNV-1" source="S6rZOHgfTXkQJhCgSUxU-207">
          <mxGeometry relative="1" as="geometry">
            <mxPoint x="530" y="1370" as="targetPoint" />
            <Array as="points">
              <mxPoint x="570" y="1690" />
              <mxPoint x="570" y="1370" />
            </Array>
          </mxGeometry>
        </mxCell>
        <mxCell id="S6rZOHgfTXkQJhCgSUxU-207" value="pilihanpengguna&amp;nbsp;&lt;div&gt;== &quot;2&quot;&lt;/div&gt;" style="strokeWidth=2;html=1;shape=mxgraph.flowchart.decision;whiteSpace=wrap;strokeColor=#7F00FF;" vertex="1" parent="WIyWlLk6GJQsqaUBKTNV-1">
          <mxGeometry x="117.5" y="1630" width="115" height="120" as="geometry" />
        </mxCell>
        <mxCell id="S6rZOHgfTXkQJhCgSUxU-213" value="print(&quot;Input Anda&lt;div&gt;Salah&quot;)&lt;/div&gt;" style="rounded=1;whiteSpace=wrap;html=1;absoluteArcSize=1;arcSize=14;strokeWidth=2;strokeColor=#7F00FF;" vertex="1" parent="WIyWlLk6GJQsqaUBKTNV-1">
          <mxGeometry x="560" y="1510" width="100" height="100" as="geometry" />
        </mxCell>
        <mxCell id="S6rZOHgfTXkQJhCgSUxU-218" value="" style="edgeStyle=orthogonalEdgeStyle;rounded=0;orthogonalLoop=1;jettySize=auto;html=1;" edge="1" parent="WIyWlLk6GJQsqaUBKTNV-1" source="S6rZOHgfTXkQJhCgSUxU-214" target="S6rZOHgfTXkQJhCgSUxU-217">
          <mxGeometry relative="1" as="geometry" />
        </mxCell>
        <mxCell id="S6rZOHgfTXkQJhCgSUxU-253" value="" style="edgeStyle=orthogonalEdgeStyle;rounded=0;orthogonalLoop=1;jettySize=auto;html=1;" edge="1" parent="WIyWlLk6GJQsqaUBKTNV-1" source="S6rZOHgfTXkQJhCgSUxU-214" target="S6rZOHgfTXkQJhCgSUxU-250">
          <mxGeometry relative="1" as="geometry" />
        </mxCell>
        <mxCell id="S6rZOHgfTXkQJhCgSUxU-254" value="no" style="edgeLabel;html=1;align=center;verticalAlign=middle;resizable=0;points=[];" vertex="1" connectable="0" parent="S6rZOHgfTXkQJhCgSUxU-253">
          <mxGeometry x="-0.2" y="3" relative="1" as="geometry">
            <mxPoint as="offset" />
          </mxGeometry>
        </mxCell>
        <mxCell id="S6rZOHgfTXkQJhCgSUxU-214" value="&lt;font style=&quot;font-size: 11px;&quot;&gt;pilihanregister.lower()&lt;/font&gt;&lt;div style=&quot;font-size: 11px;&quot;&gt;&lt;font style=&quot;font-size: 11px;&quot;&gt;== &quot;register&quot;&lt;/font&gt;&lt;/div&gt;" style="strokeWidth=2;html=1;shape=mxgraph.flowchart.decision;whiteSpace=wrap;strokeColor=#FF00FF;" vertex="1" parent="WIyWlLk6GJQsqaUBKTNV-1">
          <mxGeometry x="-80" y="780" width="140" height="110" as="geometry" />
        </mxCell>
        <mxCell id="S6rZOHgfTXkQJhCgSUxU-219" style="edgeStyle=orthogonalEdgeStyle;rounded=0;orthogonalLoop=1;jettySize=auto;html=1;exitX=0;exitY=0.5;exitDx=0;exitDy=0;exitPerimeter=0;strokeColor=#FF00FF;" edge="1" parent="WIyWlLk6GJQsqaUBKTNV-1" source="S6rZOHgfTXkQJhCgSUxU-217">
          <mxGeometry relative="1" as="geometry">
            <mxPoint x="60" y="750" as="targetPoint" />
            <Array as="points">
              <mxPoint x="-350" y="964" />
              <mxPoint x="-350" y="750" />
            </Array>
          </mxGeometry>
        </mxCell>
        <mxCell id="S6rZOHgfTXkQJhCgSUxU-222" value="yes" style="edgeLabel;html=1;align=center;verticalAlign=middle;resizable=0;points=[];" vertex="1" connectable="0" parent="S6rZOHgfTXkQJhCgSUxU-219">
          <mxGeometry x="-0.8204" y="4" relative="1" as="geometry">
            <mxPoint as="offset" />
          </mxGeometry>
        </mxCell>
        <mxCell id="S6rZOHgfTXkQJhCgSUxU-224" style="edgeStyle=orthogonalEdgeStyle;rounded=0;orthogonalLoop=1;jettySize=auto;html=1;exitX=0.437;exitY=0.983;exitDx=0;exitDy=0;exitPerimeter=0;" edge="1" parent="WIyWlLk6GJQsqaUBKTNV-1" source="S6rZOHgfTXkQJhCgSUxU-217">
          <mxGeometry relative="1" as="geometry">
            <mxPoint x="-50" y="1050" as="targetPoint" />
            <Array as="points">
              <mxPoint x="-50" y="1012" />
            </Array>
          </mxGeometry>
        </mxCell>
        <mxCell id="S6rZOHgfTXkQJhCgSUxU-226" value="no" style="edgeLabel;html=1;align=center;verticalAlign=middle;resizable=0;points=[];" vertex="1" connectable="0" parent="S6rZOHgfTXkQJhCgSUxU-224">
          <mxGeometry x="0.2032" y="3" relative="1" as="geometry">
            <mxPoint as="offset" />
          </mxGeometry>
        </mxCell>
        <mxCell id="S6rZOHgfTXkQJhCgSUxU-217" value="register == 1" style="strokeWidth=2;html=1;shape=mxgraph.flowchart.decision;whiteSpace=wrap;strokeColor=#FF00FF;" vertex="1" parent="WIyWlLk6GJQsqaUBKTNV-1">
          <mxGeometry x="-60" y="913.48" width="100" height="100" as="geometry" />
        </mxCell>
        <mxCell id="S6rZOHgfTXkQJhCgSUxU-221" value="print(&quot;Kamu sudah Register&quot;)" style="rounded=1;whiteSpace=wrap;html=1;absoluteArcSize=1;arcSize=14;strokeWidth=2;strokeColor=#FF00FF;" vertex="1" parent="WIyWlLk6GJQsqaUBKTNV-1">
          <mxGeometry x="-407.5" y="880" width="100" height="57" as="geometry" />
        </mxCell>
        <mxCell id="S6rZOHgfTXkQJhCgSUxU-227" value="" style="edgeStyle=orthogonalEdgeStyle;rounded=0;orthogonalLoop=1;jettySize=auto;html=1;" edge="1" parent="WIyWlLk6GJQsqaUBKTNV-1" source="S6rZOHgfTXkQJhCgSUxU-223" target="S6rZOHgfTXkQJhCgSUxU-225">
          <mxGeometry relative="1" as="geometry" />
        </mxCell>
        <mxCell id="S6rZOHgfTXkQJhCgSUxU-223" value="pengguna = input(&quot;Buatlah Nama Akun" style="shape=parallelogram;html=1;strokeWidth=2;perimeter=parallelogramPerimeter;whiteSpace=wrap;rounded=1;arcSize=12;size=0.23;strokeColor=#FF00FF;" vertex="1" parent="WIyWlLk6GJQsqaUBKTNV-1">
          <mxGeometry x="-120" y="1053.48" width="110" height="60" as="geometry" />
        </mxCell>
        <mxCell id="S6rZOHgfTXkQJhCgSUxU-231" value="" style="edgeStyle=orthogonalEdgeStyle;rounded=0;orthogonalLoop=1;jettySize=auto;html=1;" edge="1" parent="WIyWlLk6GJQsqaUBKTNV-1" source="S6rZOHgfTXkQJhCgSUxU-225" target="S6rZOHgfTXkQJhCgSUxU-230">
          <mxGeometry relative="1" as="geometry" />
        </mxCell>
        <mxCell id="S6rZOHgfTXkQJhCgSUxU-225" value="penggunapw = input(&quot;Buatlah&amp;nbsp;&lt;div&gt;Password Akun&lt;/div&gt;" style="shape=parallelogram;html=1;strokeWidth=2;perimeter=parallelogramPerimeter;whiteSpace=wrap;rounded=1;arcSize=12;size=0.23;strokeColor=#FF00FF;" vertex="1" parent="WIyWlLk6GJQsqaUBKTNV-1">
          <mxGeometry x="-130" y="1140" width="130" height="80" as="geometry" />
        </mxCell>
        <mxCell id="S6rZOHgfTXkQJhCgSUxU-232" style="edgeStyle=orthogonalEdgeStyle;rounded=0;orthogonalLoop=1;jettySize=auto;html=1;strokeColor=#FF00FF;" edge="1" parent="WIyWlLk6GJQsqaUBKTNV-1">
          <mxGeometry relative="1" as="geometry">
            <mxPoint x="-360" y="760" as="targetPoint" />
            <mxPoint x="-120" y="1320" as="sourcePoint" />
            <Array as="points">
              <mxPoint x="-431" y="1320" />
              <mxPoint x="-431" y="760" />
            </Array>
          </mxGeometry>
        </mxCell>
        <mxCell id="S6rZOHgfTXkQJhCgSUxU-230" value="register = 1" style="rounded=1;whiteSpace=wrap;html=1;absoluteArcSize=1;arcSize=14;strokeWidth=2;strokeColor=#FF00FF;" vertex="1" parent="WIyWlLk6GJQsqaUBKTNV-1">
          <mxGeometry x="-115" y="1250" width="100" height="100" as="geometry" />
        </mxCell>
        <mxCell id="S6rZOHgfTXkQJhCgSUxU-251" style="edgeStyle=orthogonalEdgeStyle;rounded=0;orthogonalLoop=1;jettySize=auto;html=1;strokeColor=#0000FF;" edge="1" parent="WIyWlLk6GJQsqaUBKTNV-1" source="S6rZOHgfTXkQJhCgSUxU-250">
          <mxGeometry relative="1" as="geometry">
            <mxPoint x="-90" y="320" as="targetPoint" />
            <Array as="points">
              <mxPoint x="-320" y="835" />
              <mxPoint x="-320" y="320" />
            </Array>
          </mxGeometry>
        </mxCell>
        <mxCell id="S6rZOHgfTXkQJhCgSUxU-255" value="yes" style="edgeLabel;html=1;align=center;verticalAlign=middle;resizable=0;points=[];" vertex="1" connectable="0" parent="S6rZOHgfTXkQJhCgSUxU-251">
          <mxGeometry x="-0.9304" relative="1" as="geometry">
            <mxPoint as="offset" />
          </mxGeometry>
        </mxCell>
        <mxCell id="S6rZOHgfTXkQJhCgSUxU-256" value="" style="edgeStyle=orthogonalEdgeStyle;rounded=0;orthogonalLoop=1;jettySize=auto;html=1;exitX=0.5;exitY=0;exitDx=0;exitDy=0;exitPerimeter=0;strokeColor=#0014f9;" edge="1" parent="WIyWlLk6GJQsqaUBKTNV-1" source="S6rZOHgfTXkQJhCgSUxU-250">
          <mxGeometry relative="1" as="geometry">
            <mxPoint x="-80" y="750" as="targetPoint" />
            <Array as="points">
              <mxPoint x="-99" y="780" />
              <mxPoint x="-99" y="760" />
              <mxPoint x="-120" y="760" />
              <mxPoint x="-120" y="750" />
            </Array>
          </mxGeometry>
        </mxCell>
        <mxCell id="S6rZOHgfTXkQJhCgSUxU-257" value="no" style="edgeLabel;html=1;align=center;verticalAlign=middle;resizable=0;points=[];" vertex="1" connectable="0" parent="S6rZOHgfTXkQJhCgSUxU-256">
          <mxGeometry x="-0.0765" y="-1" relative="1" as="geometry">
            <mxPoint x="-64" y="-1" as="offset" />
          </mxGeometry>
        </mxCell>
        <mxCell id="S6rZOHgfTXkQJhCgSUxU-250" value="&lt;font style=&quot;font-size: 11px;&quot;&gt;pilihanregister.lower()&lt;/font&gt;&lt;div style=&quot;font-size: 11px;&quot;&gt;&lt;font style=&quot;font-size: 11px;&quot;&gt;== &quot;keluar&quot;&lt;/font&gt;&lt;/div&gt;" style="strokeWidth=2;html=1;shape=mxgraph.flowchart.decision;whiteSpace=wrap;strokeColor=#0000FF;" vertex="1" parent="WIyWlLk6GJQsqaUBKTNV-1">
          <mxGeometry x="-260" y="780" width="140" height="110" as="geometry" />
        </mxCell>
        <mxCell id="S6rZOHgfTXkQJhCgSUxU-258" value="&lt;font style=&quot;font-size: 7px;&quot;&gt;print(&quot;salah input&quot;)&lt;/font&gt;" style="rounded=1;whiteSpace=wrap;html=1;absoluteArcSize=1;arcSize=14;strokeWidth=2;strokeColor=#0000FF;" vertex="1" parent="WIyWlLk6GJQsqaUBKTNV-1">
          <mxGeometry x="-160" y="760" width="70" height="20" as="geometry" />
        </mxCell>
      </root>
    </mxGraphModel>
  </diagram>
</mxfile>
